<svg width="291" height="302" viewBox="0 0 291 302" fill="none" xmlns="http://www.w3.org/2000/svg">
<path fill-rule="evenodd" clip-rule="evenodd" d="M144.66 291.416C130.412 288.583 118.1 278.922 103.705 277.256C81.0383 274.633 47.8736 300.733 36.2136 278.863C23.512 255.039 69.2394 229.927 64.0182 202.819C58.8993 176.242 14.1887 175.15 11.0453 148.193C8.44353 125.882 34.425 110.715 51.9949 99.7126C67.7408 89.8519 86.6432 89.9614 104.691 89.5488C118.398 89.2354 131.235 100.697 144.66 97.594C162.877 93.3842 174.875 68.7755 193.476 69.0305C211.079 69.2718 238.042 79.2138 238.263 98.8774C238.59 127.852 185.214 142.514 194.608 169.524C206.157 202.733 263.195 185.735 279.19 216.558C289.472 236.37 265.703 261.446 249.835 275.948C234.401 290.054 213.064 292.156 193.293 295.064C176.98 297.463 160.86 294.635 144.66 291.416Z" fill="url(#paint0_linear_909_3622)"/>
<mask id="mask0_909_3622" style="mask-type:alpha" maskUnits="userSpaceOnUse" x="0" y="0" width="291" height="302">
<rect width="291" height="302" rx="30" fill="#C4C4C4"/>
</mask>
<g mask="url(#mask0_909_3622)">
<path d="M174.779 78.8201C174.779 78.8201 189.113 82.6628 194.788 90.0788C200.463 97.4949 198.511 116.609 197.032 127.613C195.553 138.616 191.587 146.571 196.28 150.414C200.973 154.257 202.656 150.698 202.656 150.698C202.656 150.698 196.28 162.779 189.559 164.438C182.839 166.097 173.491 156.738 172.012 148.5C170.533 140.261 169.538 127.882 170.737 119.36C171.935 110.838 174.282 107.945 175.468 102.174C176.654 96.403 175.71 86.7891 175.71 86.7891L174.779 78.8201Z" fill="#3B2645"/>
<path d="M154.019 287.277C182.684 287.277 205.921 265.623 205.921 238.91C205.921 212.198 182.684 190.543 154.019 190.543C125.354 190.543 102.116 212.198 102.116 238.91C102.116 265.623 125.354 287.277 154.019 287.277Z" fill="#AB8DA8"/>
<path d="M109.998 125.174L108.863 124.337L103.57 115.518L107.804 106.017L117.317 105.322L118.452 106.173L109.998 125.174Z" fill="#393762"/>
<path d="M119.51 124.493L109.997 125.174L104.705 116.354L108.926 106.854L118.452 106.173L123.731 114.993L119.51 124.493Z" fill="#636183"/>
<path d="M142.414 121.161C140.036 124.079 138.004 127.324 136.37 130.817C133.156 137.34 125.033 146.415 123.528 148.259C122.819 149.25 121.91 150.042 120.875 150.57C119.443 145.905 118.309 141.134 117.483 136.291C116.731 130.619 115.596 119.474 115.596 119.474L118.618 112.752C118.618 112.752 116.157 107.279 115.213 106.882C114.27 106.485 112.382 107.08 109.551 109.817C106.72 112.554 105.572 115.276 106.899 118.623C108.225 121.969 111.056 125.344 110.724 130.803C110.393 136.263 110.546 155.391 112.242 161.687C113.938 167.983 113.759 167.997 116.068 167.997C118.376 167.997 124.994 164.835 131.944 160.907C136.015 158.646 139.471 155.22 141.955 150.981L142.414 121.161Z" fill="#FFEDE5"/>
<path d="M156.773 117.809C153.602 117.21 150.358 117.277 147.209 118.008C142.516 119.27 140.08 122.602 139.137 128.657C138.193 134.712 134.826 142.227 137.083 147.899C139.341 153.571 141.394 157.924 141.585 162.504C141.677 166.876 141.493 171.249 141.037 175.592C140.664 176.46 140.238 177.299 139.761 178.102C139.761 178.102 139.379 181.434 129.993 178.513C120.607 175.592 108.607 176.429 96.2246 179.562C83.8419 182.696 77.2744 185.234 76.7133 189.786C76.1522 194.338 76.1522 222.74 77.2744 231.092C77.9056 236.715 77.7809 242.412 76.9046 247.994C73.7946 250.401 70.4595 252.426 66.9577 254.035C61.7037 256.332 58.7069 257.58 59.6378 259.707C60.5688 261.834 64.1394 262.217 68.641 262.217C73.1427 262.217 79.3403 261.805 79.3403 261.805C79.3403 261.805 73.7165 265.761 69.9545 268.47C66.1926 271.178 62.6474 271.816 64.3307 274.737C66.014 277.658 82.1841 276.822 86.0991 276.822C90.0141 276.822 94.5412 275.149 94.9111 273.277C95.2809 271.405 93.7888 264.925 93.7888 262.429C93.7888 259.934 93.2277 248.859 95.4722 243.854C97.7166 238.848 101.109 224.243 100.917 218.614C100.726 212.984 100.356 209.439 100.356 209.439C100.356 209.439 121.908 212.729 130.325 216.061C138.741 219.394 157.526 222.116 166.35 217.323C175.175 212.531 178.733 206.674 177.419 198.337C176.106 189.999 172.535 184.568 173.479 174.756C174.422 164.943 174.41 155.358 176.667 150.565C178.924 145.772 183.987 137.207 183.604 131.578C183.222 125.949 173.849 120.234 169.156 118.221C164.463 116.207 156.773 117.809 156.773 117.809Z" fill="#FFEDE5"/>
<path d="M76.6624 190.288C76.1013 194.868 76.1013 223.242 77.2236 231.594C77.8547 237.217 77.73 242.913 76.8537 248.496C73.7437 250.902 70.4087 252.928 66.9068 254.536C61.6528 256.834 58.656 258.081 59.5869 260.208C60.5179 262.335 64.0885 262.718 68.5902 262.718C72.4159 262.718 77.4276 262.42 78.8686 262.321C79.774 261.995 81.5466 261.3 81.5466 260.903C81.5466 260.506 83.0387 245.305 83.2299 230.644C83.4212 215.982 84.926 199.051 84.926 199.051L83.2427 191.536C81.6983 189.923 80.0346 188.457 78.2693 187.154C77.4112 187.949 76.8406 189.062 76.6624 190.288Z" fill="#FFEDE5"/>
<path d="M81.1641 255.373C81.1641 255.373 80.6029 253.955 79.6593 251.204C79.4931 250.49 79.1359 249.849 78.635 249.366C78.1341 248.882 77.5129 248.579 76.8537 248.496C73.7437 250.903 70.4087 252.928 66.9068 254.537C61.6528 256.834 58.656 258.082 59.5869 260.209C60.5179 262.336 64.0885 262.718 68.5902 262.718C72.4159 262.718 77.4276 262.421 78.8686 262.321C79.774 261.995 81.5466 261.3 81.5466 260.903C81.5466 260.677 81.7252 258.635 81.9802 255.473L81.1641 255.373Z" fill="#3B2645"/>
<path d="M153.585 185.481C148.753 182.652 144.545 178.666 141.266 173.811C141.164 175.044 141.075 175.909 141.024 176.093C140.651 176.962 140.225 177.8 139.749 178.603C139.749 178.603 139.366 181.936 129.98 179.015C120.595 176.093 108.595 176.93 96.212 180.064C83.8294 183.198 77.2619 185.736 76.7008 190.287C76.7008 190.5 76.7008 190.77 76.6243 191.082C77.3467 192.253 78.1257 193.379 78.9579 194.456C80.5918 196.492 82.6374 198.067 84.9261 199.051C85.4999 201.972 89.0579 211.146 94.3119 211.146C99.5659 211.146 100.318 209.898 100.318 209.898C100.318 209.898 121.908 213.23 130.325 216.563C138.741 219.895 157.526 222.617 166.35 217.825C175.175 213.032 178.733 207.176 177.42 198.838C176.836 195.635 176.056 192.479 175.086 189.394C169.373 189.734 160.165 189.522 153.585 185.481Z" fill="#3B2645"/>
<path d="M141.036 176.094C140.663 176.962 140.237 177.8 139.761 178.604C139.761 178.604 139.379 181.936 129.993 179.015C120.607 176.094 108.607 176.93 96.2244 180.064C83.8418 183.198 77.2743 185.736 76.7132 190.288C76.5984 191.21 76.5092 193.124 76.4454 195.577C78.9126 197.618 81.8572 198.824 84.9258 199.051C86.2681 196.474 88.2052 194.342 90.5369 192.876C92.8686 191.41 95.5101 190.663 98.1883 190.713C107.676 190.713 147.783 191.536 147.783 191.536L153.139 177.966C153.139 177.966 146.762 172.96 141.521 169.699C141.355 172.903 141.126 175.739 141.036 176.094Z" fill="#3B2645"/>
<path d="M173.555 177.185C174.04 174.874 183.604 162.651 184.56 158.397C185.517 154.143 189.024 141.197 185.836 133.753C182.648 126.308 178.656 124.536 178.656 124.536C175.727 122.142 172.539 120.165 169.168 118.651C164.488 116.567 156.786 118.24 156.786 118.24C153.614 117.641 150.37 117.708 147.221 118.439C142.528 119.701 140.093 123.033 139.149 129.088C138.205 135.142 134.826 142.729 137.083 148.4C139.34 154.072 141.393 158.426 141.585 163.006C141.676 167.377 141.493 171.751 141.036 176.094C140.663 176.962 140.237 177.8 139.761 178.603V178.689C141.151 181.879 144.339 188.614 147.846 191.535C151.138 191.648 154.304 192.969 156.849 195.293C160.675 199.051 165.304 199.873 170.367 199.873C172.77 199.766 175.147 199.289 177.432 198.455C176.157 191.025 173.211 185.849 173.415 177.653C173.489 177.51 173.537 177.35 173.555 177.185Z" fill="#AB8DA8"/>
<path d="M171.515 105.705C171.515 105.705 176.221 97.6652 176.973 90.788C177.725 83.9108 176.603 77.5015 169.844 73.4745C163.085 69.4474 153.139 73.4745 150.142 77.5015C147.145 81.5286 147.515 89.1857 146.762 90.8589C146.01 92.5321 142.631 95.2405 143.013 96.2898C143.396 97.3391 145.831 98.7712 145.831 98.7712L147.107 105.237C147.477 107.123 148.599 109.619 149.912 109.619C151.698 109.412 153.469 109.08 155.217 108.626C155.217 108.626 155.587 115.149 154.478 117.772C152.986 121.317 145.296 142.558 148.675 144.714C152.055 146.869 166.35 130.194 170.469 126.649C174.588 123.104 169.194 118.722 169.194 118.722C169.194 118.722 167.345 118.637 168.097 113.419C168.427 110.495 169.631 107.778 171.515 105.705Z" fill="#FFEDE5"/>
<path d="M86.0481 277.281C89.9886 277.281 94.4902 275.608 94.8601 273.736C95.1661 272.233 94.2734 267.823 93.8909 264.817C93.1142 265.126 92.3034 265.317 91.4807 265.384C89.467 265.461 87.4528 265.251 85.487 264.76C85.4425 263.897 85.2522 263.05 84.9259 262.265C84.3648 260.847 81.5593 260.847 81.5593 260.847L78.4604 262.35H79.3021C79.3021 262.35 73.6783 266.306 69.9163 269.014C66.1543 271.723 62.6092 272.361 64.2925 275.282C65.9758 278.203 82.1076 277.281 86.0481 277.281Z" fill="#3B2645"/>
<path d="M179.396 92.2344C180.136 85.3572 176.603 77.5016 169.845 73.4745C164.195 70.1564 156.34 72.3968 152.131 75.5306C152.973 75.7 153.73 76.204 154.261 76.9486C156.977 80.2525 155.536 86.2931 157.972 89.0439C160.408 91.7948 161.67 90.9724 161.67 90.9724C161.67 90.9724 164.399 86.0236 165.623 90.9724C166.848 95.9211 165.139 98.0623 163.902 98.6578C163.022 99.0262 162.112 99.3016 161.186 99.4803C161.186 99.4803 167.817 105.989 171.515 105.762C171.515 105.705 178.644 99.1258 179.396 92.2344Z" fill="#3B2645"/>
<path d="M113.249 128.152L112.127 127.301L106.835 118.481L111.056 108.98L120.569 108.3L121.704 109.136L113.249 128.152Z" fill="#393762"/>
<path d="M122.775 127.457L113.249 128.152L107.969 119.318L112.19 109.817L121.704 109.136L126.996 117.956L122.775 127.457Z" fill="#636183"/>
<path d="M188.972 207.176C187.648 203.707 186.879 200.007 186.703 196.243C186.703 192.4 182.737 182.489 182.737 180.291C183.273 171.657 184.227 163.061 185.593 154.54C187.761 146.43 187.582 137.652 185.835 133.753C184.088 129.853 177.062 130.562 175.149 136.943C173.236 143.324 173.351 155.703 173.351 155.703C172.713 161.262 172.28 173.655 172.075 181.099C171.935 187.721 173.198 194.4 176.054 199.164C180.097 205.914 182.01 214.762 183.247 214.762C184.484 214.762 191.038 213.854 191.038 213.854C191.038 213.854 191.383 213.103 188.972 207.176Z" fill="#FFEDE5"/>
<path d="M192.506 221.086C192.506 221.086 193.781 213.401 193.501 211.742C193.22 210.083 189.05 211.203 187.316 211.203C185.581 211.203 184.357 210.919 184.599 212.025C184.842 213.131 188.31 213.443 188.31 213.443L189.586 213.982L192.506 221.086Z" fill="#FFEDE5"/>
<path d="M200.985 215.641H175.531V219.484H200.985V215.641Z" fill="#636183"/>
<path d="M210.371 207.133H199.251V227.467H210.371V207.133Z" fill="#636183"/>
<path d="M176.016 207.133H164.896V227.467H176.016V207.133Z" fill="#636183"/>
<path d="M180.225 212.621L181.615 220.164C181.706 220.668 181.957 221.119 182.322 221.434C182.687 221.749 183.142 221.907 183.604 221.88C185.338 221.767 188.029 221.596 189.61 221.412C192.084 221.143 192.824 221.965 193.079 219.994C193.194 219.001 193.385 217.158 193.551 215.598C193.584 215.257 193.551 214.911 193.453 214.585C193.356 214.259 193.196 213.961 192.986 213.709C192.775 213.458 192.519 213.259 192.234 213.128C191.948 212.996 191.641 212.935 191.332 212.947C189.406 212.947 186.983 213.117 186.397 213.117C185.415 213.174 182.201 210.153 180.225 212.621Z" fill="#FFEDE5"/>
</g>
<defs>
<linearGradient id="paint0_linear_909_3622" x1="10.864" y1="69.0285" x2="370.907" y2="102.278" gradientUnits="userSpaceOnUse">
<stop stop-color="#92A3FD"/>
<stop offset="1" stop-color="#9DCEFF"/>
</linearGradient>
</defs>
</svg>
