<svg width="428" height="215" viewBox="0 0 428 215" fill="none" xmlns="http://www.w3.org/2000/svg">
<rect width="428" height="215" rx="22" fill="url(#paint0_linear_909_3158)"/>
<mask id="mask0_909_3158" style="mask-type:alpha" maskUnits="userSpaceOnUse" x="0" y="0" width="428" height="215">
<rect width="428" height="215" rx="22" fill="white"/>
</mask>
<g mask="url(#mask0_909_3158)">
<ellipse opacity="0.3" cx="120.927" cy="149.783" rx="92.3937" ry="96.75" fill="white"/>
<path d="M118.241 282.599C114.321 282.607 110.413 282.17 106.582 281.298C99.8863 279.849 93.5792 276.856 88.1149 272.533C82.6506 268.21 78.1651 262.665 74.9816 256.298C72.4554 250.342 70.5788 244.103 69.3877 237.702L69.1129 236.483C65.1874 218.88 60.2413 200.265 51.1145 183.446C49.6424 180.74 48.033 178.033 46.4824 175.43C42.7311 169.535 39.5549 163.257 37.0023 156.69C33.0768 145.43 33.803 134.232 39.1613 126.855C39.8672 125.71 40.7856 124.725 41.8614 123.962C42.9373 123.199 44.1486 122.672 45.4225 122.413C46.1988 122.315 46.9861 122.385 47.7356 122.619C48.4851 122.854 49.1809 123.248 49.7798 123.777C50.247 124.169 50.6302 124.661 50.9042 125.22C51.1782 125.779 51.3368 126.393 51.3697 127.021H50.0939C50.0632 126.583 49.9461 126.156 49.7501 125.768C49.5541 125.381 49.2834 125.04 48.9555 124.769C48.4895 124.361 47.9506 124.056 47.3708 123.872C46.791 123.687 46.1819 123.627 45.5795 123.694C43.3683 124.225 41.4356 125.63 40.182 127.62C35.0984 134.665 34.2937 145.347 38.2192 156.174C40.7502 162.693 43.907 168.924 47.6404 174.769C49.191 177.393 50.8005 180.099 52.2922 182.826C61.4386 199.769 66.4436 218.488 70.3691 236.194L70.6439 237.413C71.81 243.708 73.6538 249.843 76.1396 255.698C79.2333 261.886 83.5935 267.274 88.9055 271.472C94.2175 275.67 100.349 278.574 106.857 279.975C120.016 282.72 133.67 280.772 145.66 274.438C150.461 272.186 154.796 268.964 158.418 264.955C162.103 260.26 164.943 254.896 166.799 249.128C170.077 240.079 172.687 230.533 175.043 221.339C178.674 207.62 182.423 193.426 188.782 180.574C190.745 176.814 192.708 173.116 194.788 169.541C198.684 163.126 201.971 156.324 204.602 149.231C206.859 142.496 206.957 136.835 204.916 132.703C204.199 131.325 203.204 130.129 202 129.201C200.796 128.273 199.412 127.634 197.948 127.331C196.926 127.076 195.861 127.076 194.839 127.331C193.817 127.586 192.865 128.088 192.06 128.798L191.216 127.785C192.163 126.932 193.286 126.324 194.495 126.008C195.705 125.693 196.968 125.678 198.184 125.967C199.845 126.328 201.41 127.071 202.767 128.142C204.125 129.214 205.24 130.587 206.035 132.165C208.253 136.711 208.154 142.62 205.779 149.727C203.121 156.909 199.781 163.79 195.809 170.265C193.846 173.839 191.687 177.517 189.92 181.236C183.64 193.963 179.91 208.095 176.299 221.731C173.845 230.988 171.314 240.554 167.996 249.645C166.099 255.572 163.185 261.083 159.4 265.905C155.658 270.042 151.184 273.369 146.23 275.698C137.506 280.168 127.943 282.526 118.241 282.599Z" fill="#AB8DA8"/>
<path d="M132.647 42.0207C133.662 40.325 134.243 38.3821 134.335 36.3802C134.446 35.4812 134.368 34.5675 134.107 33.7036C133.846 32.8397 133.408 32.0466 132.824 31.3802C132.333 30.8844 131.725 30.4918 131.273 29.9546C130.822 29.4174 130.606 28.8596 130.233 28.343C129.829 27.7889 129.308 27.3403 128.713 27.0321C128.117 26.724 127.462 26.5645 126.798 26.5662C125.444 26.5662 124.011 27.2273 122.873 26.5662C122.166 26.1943 121.695 25.4505 120.91 25.0372C120.171 24.6414 119.323 24.5317 118.515 24.7273C117.809 24.9865 117.064 25.1056 116.317 25.0786C115.257 24.9133 114.531 23.9215 113.589 23.3637C113.104 23.103 112.572 22.9571 112.028 22.936C111.485 22.9149 110.943 23.0193 110.442 23.2417C109.941 23.4642 109.492 23.7994 109.127 24.2237C108.762 24.6481 108.489 25.1514 108.329 25.6984C108.201 26.2201 108.201 26.7676 108.329 27.2893C108.545 28.5496 109.369 29.562 109.428 30.8224C109.487 32.0827 108.76 33.1777 109.428 34.2934C110.095 35.4091 111.076 35.4505 111.548 36.5042C112.176 37.9298 111.548 39.7893 112.117 41.3182C112.411 42.2893 112.568 43.6736 113.432 44.2934C114.629 45.1612 117.24 44.4381 118.672 44.2934L124.227 43.8182C126.68 43.5703 129.703 43.8182 131.921 42.5372C132.189 42.409 132.434 42.2344 132.647 42.0207Z" fill="#3B2645"/>
<path d="M113.805 41.1119C113.61 40.8301 113.355 40.6009 113.06 40.4428C112.765 40.2848 112.438 40.2024 112.107 40.2024C111.776 40.2024 111.45 40.2848 111.155 40.4428C110.86 40.6009 110.604 40.8301 110.409 41.1119C108.702 43.178 111.587 47.3102 113.805 47.5581C113.934 45.4115 113.934 43.2585 113.805 41.1119Z" fill="#FFEDE5"/>
<path d="M141.382 75.719C140.864 79.1993 140.17 82.6478 139.301 86.0496C139.164 86.6901 139.046 87.3099 138.967 87.9091C138.889 88.5083 138.81 88.9628 138.712 89.7273C138.712 89.8719 138.712 90.0372 138.712 90.1818C138.712 90.6777 138.575 91.1942 138.516 91.7521L136.043 116.029C120.675 120.471 104.639 116.029 104.639 116.029C104.639 116.029 104.639 115.719 104.639 115.12C104.384 112.372 103.599 103.632 102.814 93.7769C102.814 93.7769 102.814 93.6322 102.814 93.5703C102.821 93.4189 102.821 93.2671 102.814 93.1157C102.48 88.9835 102.166 84.6033 101.911 80.4298C101.44 73.1777 101.145 66.4835 101.204 62.3306C101.204 60.8017 104.6 60.967 106.916 60.6364C108.623 60.3885 110.37 60.2232 111.881 60.1405C113.393 60.0579 114.531 60.0166 115.297 60.0166H116.16C116.16 60.0166 116.357 57.6405 116.357 57.6199L116.886 51.7934C117.144 51.8633 117.407 51.9117 117.672 51.938C118.157 52.0339 118.65 52.0891 119.144 52.1033C119.791 52.1033 120.4 52.1033 120.969 52.1033L121.813 52H122.304C122.853 51.8967 123.383 51.7728 123.874 51.6281C124.365 51.4835 124.522 51.4215 124.836 51.3182C126.27 50.8345 127.631 50.1389 128.879 49.2521L129.056 49.1281L129.389 48.8595L129.625 48.6736C129.625 48.9628 129.625 49.0868 129.625 49.2108C129.468 50.5744 129.291 52.3099 129.213 54.0248C129.213 55.2232 129.095 56.4009 129.056 57.4132C129.016 58.4256 128.702 59.8926 129.389 60.4091C129.634 60.5541 129.899 60.6586 130.174 60.719C131.252 60.8981 132.342 60.9742 133.432 60.9463C133.766 60.9463 134.1 60.9463 134.433 60.9463C135.27 60.895 136.109 60.895 136.946 60.9463C137.531 60.9445 138.11 61.0661 138.649 61.3039C139.189 61.5416 139.677 61.8907 140.086 62.3306C140.595 63.1058 140.918 63.9989 141.028 64.9339L141.264 66.6281C141.637 69.6434 141.677 72.6941 141.382 75.719Z" fill="#FFEDE5"/>
<path d="M129.546 48.5288C129.281 50.0074 128.707 51.4057 127.867 52.6233C127.027 53.8408 125.941 54.8473 124.688 55.5703C123.434 56.2934 122.044 56.7151 120.617 56.805C119.19 56.895 117.762 56.6511 116.435 56.0908L116.808 51.8139C119.031 52.2653 121.32 52.2054 123.519 51.6384C125.717 51.0713 127.773 50.0106 129.546 48.5288Z" fill="#E0855C" fill-opacity="0.1"/>
<path d="M114.197 34.9132C113.059 36.1528 112.961 38.9214 112.882 41.9793C112.588 51.2768 115.237 54.1693 119.732 54.6859C124.227 55.2024 128.957 53.3636 129.919 44.7685C130.41 40.4503 130.92 36.5041 129.428 34.6239C127.289 31.8553 117.652 31.1115 114.197 34.9132Z" fill="#FFEDE5"/>
<path d="M129.252 43.5083C129.252 43.5083 130.626 39.6654 132.804 41.7108C134.983 43.7563 131.98 49.562 128.643 49.1281C128.683 49.1281 128.231 44.8306 129.252 43.5083Z" fill="#FFEDE5"/>
<path d="M131.843 43.4669C131.328 43.6363 130.866 43.9507 130.508 44.376C130.103 44.7324 129.775 45.1763 129.547 45.6776C129.547 45.8223 129.684 45.9256 129.782 45.8223C130.059 45.5339 130.321 45.2305 130.567 44.9132C130.746 45.121 130.968 45.2834 131.215 45.3884C131.411 45.3884 131.568 45.2024 131.49 45.0371C131.354 44.8183 131.173 44.6347 130.96 44.4999C131.326 44.253 131.674 43.9767 132 43.6735C132.006 43.6486 132.007 43.6226 132.001 43.5975C131.996 43.5724 131.986 43.5489 131.971 43.5288C131.955 43.5088 131.936 43.4927 131.914 43.482C131.892 43.4712 131.867 43.4661 131.843 43.4669Z" fill="#E0855C" fill-opacity="0.1"/>
<path d="M116.749 41.7727C116.749 41.7727 115.984 42.0619 116.101 40.6363C116.219 39.2107 116.749 39.5412 116.749 39.5412C116.749 39.5412 117.279 39.5412 117.2 40.6569C117.122 41.7727 116.749 41.7727 116.749 41.7727Z" fill="#3B2645"/>
<path d="M124.463 41.7727C124.463 41.7727 123.717 42.0619 123.835 40.6363C123.953 39.2107 124.463 39.5412 124.463 39.5412C124.463 39.5412 124.993 39.5412 124.914 40.6569C124.836 41.7727 124.463 41.7727 124.463 41.7727Z" fill="#3B2645"/>
<path d="M117.574 37.4545C117.266 37.2707 116.91 37.1937 116.558 37.2345C116.205 37.2753 115.874 37.4318 115.611 37.6818C115.598 37.7101 115.592 37.7414 115.593 37.7729C115.594 37.8044 115.603 37.835 115.619 37.8619C115.635 37.8888 115.657 37.911 115.683 37.9265C115.709 37.9419 115.738 37.9502 115.768 37.9504C116.043 37.9504 116.279 37.7851 116.553 37.7644C116.841 37.75 117.129 37.7993 117.397 37.9091C117.652 37.9917 117.829 37.5785 117.574 37.4545Z" fill="#3B2645"/>
<path d="M125.621 38.1571C125.307 37.3307 123.953 37.2687 123.364 37.7646C123.335 37.7877 123.312 37.8175 123.296 37.8515C123.28 37.8855 123.272 37.9229 123.272 37.9608C123.272 37.9988 123.28 38.0362 123.296 38.0702C123.312 38.1042 123.335 38.134 123.364 38.1571C123.716 38.1881 124.071 38.1881 124.424 38.1571C124.709 38.2055 124.986 38.2959 125.248 38.4257C125.282 38.4778 125.334 38.5136 125.393 38.5252C125.452 38.5368 125.513 38.5233 125.562 38.4877C125.611 38.4521 125.645 38.3972 125.656 38.3353C125.667 38.2733 125.655 38.2092 125.621 38.1571Z" fill="#3B2645"/>
<path d="M118.299 48.4254C119.955 48.6539 121.638 48.3514 123.128 47.5576C122.905 48.1089 122.575 48.6051 122.159 49.0143C121.744 49.4235 121.251 49.7366 120.714 49.9337C119.006 50.4295 118.299 48.4254 118.299 48.4254Z" fill="white"/>
<path d="M108.388 62.3099C112.902 65.6363 113.314 72.1033 111.116 77.2686C109.624 80.719 106.857 83.1363 105.228 86.4008C103.53 89.5669 101.559 92.5616 99.3395 95.3471C94.4719 101.855 89.8398 107.744 88.0537 109.975C81.9103 117.702 68.9953 127.909 64.3436 131.463C63.2837 132.289 62.6557 132.744 62.6557 132.744C62.6557 132.744 58.2002 130.285 59.3779 125.74C59.3779 125.74 77.0426 105.988 79.6531 101.959C82.5379 96.7219 85.1586 91.3287 87.5041 85.8016C90.5137 79.6722 93.6475 73.6253 96.9057 67.6611C98.3974 64.9132 100.301 61.4628 103.579 60.843C104.902 60.6865 106.237 60.9836 107.387 61.6901C107.734 61.8713 108.069 62.0784 108.388 62.3099Z" fill="#FFEDE5"/>
<path d="M59.378 125.761C59.8614 125.721 60.347 125.721 60.8304 125.761C60.8304 125.761 65.07 128.24 64.3437 131.463C64.3437 131.463 63.8923 131.897 63.1857 132.558C62.4791 133.219 61.7137 134.004 60.7912 134.996C59.8687 135.988 57.7685 139.128 56.8657 138.86C56.6552 138.778 56.4714 138.635 56.3357 138.446L54.5104 136.38C53.4897 135.182 51.7821 133.157 53.0775 131.566C52.1354 132.165 49.9371 133.632 48.8576 132.93L48.4062 132.165C48.4062 132.165 51.6447 129.624 52.9794 128.364C54.7799 126.775 57.0302 125.859 59.378 125.761Z" fill="#FFEDE5"/>
<path d="M113.746 93.9626C113.739 94.0727 113.739 94.1831 113.746 94.2932C113.746 94.2932 113.922 94.2932 113.883 94.2932L113.746 93.9626Z" fill="#D6BED3"/>
<path d="M121.028 160.926C119.222 176.153 117.102 189.397 117.102 189.397C117.397 193.074 117.534 197.062 117.534 201.153C117.534 209.169 117.024 217.682 116.376 225.182C115.552 234.748 114.413 242.888 113.923 246.979V247.496C114.649 274.624 107.308 278.219 103.873 272.289C100.438 266.359 103.873 248.88 103.873 248.88C103.884 248.722 103.884 248.563 103.873 248.405C102.428 240.287 101.465 232.083 100.988 223.839C99.8104 203.88 101.832 190.223 101.597 187.744C97.4944 144.355 103.226 120.43 103.226 120.43C104.12 116.953 105.736 113.729 107.956 110.988C112.137 106.236 117.161 107.434 120.321 113.24C120.653 113.835 120.955 114.449 121.224 115.079C122.512 118.413 123.242 121.957 123.383 125.554C123.697 134.541 122.5 148.405 121.028 160.926Z" fill="#F5A784"/>
<path d="M141.303 222.785C140.846 231.2 139.889 239.578 138.437 247.867L138.261 248.88C138.261 248.88 141.696 266.421 138.261 272.289C134.826 278.156 127.564 274.727 128.211 247.867C128.211 247.743 128.211 247.619 128.211 247.516C127.662 243.632 126.563 235.223 125.699 225.264C125.032 217.702 124.521 209.231 124.521 201.214C124.521 197.082 124.678 193.115 124.973 189.417C124.973 189.417 122.794 176.173 121.047 160.966C119.575 148.425 118.358 134.562 118.869 125.657C119.016 122.059 119.753 118.515 121.047 115.181C121.304 114.532 121.606 113.904 121.95 113.301C125.581 106.669 131.627 106.091 136.082 113.57C137.358 115.738 138.361 118.072 139.065 120.512C139.065 120.512 144.797 144.376 140.695 187.826C140.4 190.264 142.343 203.446 141.303 222.785Z" fill="#F5A784"/>
<path d="M58.9069 139.169C59.2979 139.646 59.7836 140.026 60.3297 140.283C60.8758 140.54 61.4688 140.668 62.0669 140.657C62.3409 140.59 62.5991 140.465 62.8259 140.289C63.0527 140.114 63.2434 139.893 63.3865 139.638C63.5296 139.383 63.6222 139.1 63.6585 138.806C63.6948 138.513 63.6742 138.214 63.5979 137.929C63.3696 137.301 62.999 136.741 62.5183 136.297C59.5546 133.198 56.5123 130.099 53.4308 127.227C52.9158 126.616 52.2276 126.196 51.468 126.029C50.7616 126.028 50.078 126.292 49.5389 126.772C48.9998 127.253 48.6401 127.919 48.5239 128.653C48.5239 129.975 49.6034 130.471 50.4867 131.215C53.2738 133.818 56.0609 136.545 58.9069 139.169Z" fill="#3B2645"/>
<path d="M58.4744 135.513C58.5966 135.38 58.6962 135.226 58.7688 135.058C58.8186 134.845 58.8215 134.622 58.7773 134.407C58.733 134.192 58.6429 133.991 58.5137 133.818C57.7875 132.558 56.2958 130.533 54.8237 130.347C54.3377 130.321 53.8537 130.43 53.4198 130.662C52.9859 130.894 52.6173 131.241 52.3506 131.67C51.9102 132.337 51.6301 133.106 51.5343 133.912C51.4386 134.719 51.5301 135.537 51.8011 136.298C52.2319 137.666 53.1169 138.825 54.2938 139.562C54.8811 139.824 55.5418 139.837 56.138 139.598C56.7341 139.36 57.2196 138.888 57.4931 138.281C57.7875 137.517 57.6893 136.587 58.1604 135.946C58.2497 135.79 58.355 135.645 58.4744 135.513Z" fill="#FFEDE5"/>
<path d="M133.59 62.3098C129.056 65.6362 128.643 72.1031 130.861 77.2684C132.333 80.7188 135.101 83.1362 136.75 86.4006C138.461 89.5576 140.431 92.5511 142.638 95.3469C147.506 101.855 152.157 107.744 153.924 109.975C160.087 117.744 173.002 127.909 177.653 131.463L179.361 132.744C179.361 132.744 183.797 130.285 182.619 125.739C182.619 125.739 164.954 105.987 162.344 101.958C159.451 96.7263 156.83 91.3327 154.493 85.8015C151.47 79.6031 148.35 73.6321 145.072 67.661C143.58 64.9131 141.696 61.4627 138.398 60.8428C137.076 60.6878 135.741 60.9848 134.591 61.6899C134.243 61.8702 133.908 62.0774 133.59 62.3098Z" fill="#FFEDE5"/>
<path d="M182.599 125.76C182.109 125.722 181.617 125.722 181.127 125.76C181.127 125.76 176.888 128.24 177.614 131.463C177.614 131.463 178.085 131.897 178.772 132.558C179.459 133.219 180.264 134.004 181.167 134.996C182.07 135.988 184.209 139.128 185.092 138.859C185.3 138.772 185.482 138.63 185.622 138.446L187.428 136.38C188.468 135.182 190.156 133.157 188.88 131.566C189.803 132.165 192.001 133.632 193.1 132.93L193.473 132.165C193.473 132.165 190.235 129.624 188.88 128.364C187.114 126.795 184.908 125.88 182.599 125.76Z" fill="#FFEDE5"/>
<path d="M183.051 139.169C182.66 139.646 182.174 140.026 181.628 140.283C181.082 140.54 180.489 140.668 179.891 140.657C179.613 140.594 179.351 140.473 179.12 140.3C178.888 140.127 178.693 139.906 178.546 139.65C178.399 139.395 178.303 139.11 178.265 138.814C178.226 138.518 178.245 138.217 178.321 137.929C178.565 137.329 178.942 136.798 179.42 136.38C182.39 133.281 185.426 130.257 188.527 127.31C189.039 126.695 189.729 126.274 190.49 126.111C191.194 126.112 191.875 126.376 192.411 126.857C192.947 127.338 193.302 128.004 193.414 128.735C193.414 130.058 192.354 130.553 191.452 131.297C188.684 133.818 185.897 136.545 183.051 139.169Z" fill="#3B2645"/>
<path d="M183.502 135.513C183.368 135.386 183.261 135.231 183.188 135.058C183.147 134.843 183.15 134.621 183.197 134.407C183.245 134.193 183.335 133.992 183.463 133.818C184.17 132.558 185.661 130.533 187.133 130.347C187.619 130.321 188.103 130.43 188.537 130.662C188.971 130.894 189.34 131.241 189.606 131.67C190.042 132.34 190.314 133.112 190.4 133.919C190.486 134.726 190.382 135.543 190.097 136.298C189.679 137.673 188.791 138.837 187.604 139.562C187.017 139.824 186.356 139.837 185.76 139.598C185.164 139.36 184.679 138.888 184.405 138.281C184.13 137.517 184.228 136.587 183.738 135.946L183.502 135.513Z" fill="#FFEDE5"/>
<path d="M141.597 209.541V211.608C141.597 212.992 141.597 214.417 141.597 215.884V217.558C141.597 219.252 141.48 221.008 141.401 222.806C136.319 224.282 131.087 225.107 125.817 225.265C125.601 222.951 125.169 216.794 125.149 216.112C125.149 214.707 124.855 210.74 124.835 210.203C124.718 207.186 124.639 204.17 124.639 201.215C124.639 197.372 124.777 193.612 125.051 190.12C125.051 189.872 125.051 189.645 125.051 189.417C125.051 189.19 122.873 176.194 121.126 160.967C120.93 162.579 120.733 164.19 120.537 165.74C118.888 178.839 117.141 189.417 117.141 189.417C117.436 193.095 117.573 197.083 117.573 201.174C117.573 204.294 117.573 207.372 117.357 210.636C117.357 211.174 116.965 218.075 116.906 218.736C116.769 220.946 116.592 223.116 116.415 225.203C113.667 225.079 110.959 224.893 108.27 224.645C106.15 224.459 103.481 224.335 100.89 223.942C100.772 222.083 100.694 220.306 100.635 218.57C100.635 218.136 100.635 217.703 100.635 217.269C100.635 215.368 100.635 213.57 100.635 211.835V210.471C100.635 197.951 101.793 189.707 101.616 187.744C97.5139 144.356 103.245 120.43 103.245 120.43C104.14 116.953 105.755 113.729 107.975 110.988C109.658 111.262 111.309 111.719 112.902 112.351C115.329 113.019 117.834 113.318 120.341 113.24H122.146C124.325 113.24 126.504 112.971 128.663 112.909H130.115C132.185 112.877 134.252 113.085 136.278 113.529C137.489 115.721 138.426 118.068 139.065 120.513C140.651 128.311 141.584 136.241 141.853 144.211C142.517 158.759 142.13 173.34 140.694 187.827C140.459 189.665 141.499 197.537 141.597 209.541Z" fill="#3B2645"/>
<path d="M62.9306 59.851C62.9306 59.7271 62.6951 59.7271 62.6755 59.851C61.6941 66.8965 62.2633 74.3138 62.2633 81.5246C62.2633 89.1485 62.0278 96.8345 62.4596 104.438C62.4781 104.519 62.5221 104.591 62.5844 104.643C62.6467 104.695 62.7237 104.723 62.803 104.723C62.8824 104.723 62.9594 104.695 63.0217 104.643C63.084 104.591 63.128 104.519 63.1465 104.438C63.5587 96.8345 63.3232 89.1485 63.3232 81.5246C63.3232 74.4791 63.8924 66.9585 62.9306 59.851Z" fill="#F7F8F8"/>
<path d="M71.5075 62.2481C71.4866 62.1466 71.4333 62.0558 71.3565 61.9906C71.2798 61.9254 71.1841 61.8899 71.0855 61.8899C70.9869 61.8899 70.8912 61.9254 70.8144 61.9906C70.7377 62.0558 70.6844 62.1466 70.6635 62.2481C70.6635 69.0249 70.2513 75.9258 70.6635 82.6819C70.6635 82.797 70.7069 82.9074 70.7842 82.9888C70.8615 83.0701 70.9664 83.1158 71.0757 83.1158C71.185 83.1158 71.2898 83.0701 71.3671 82.9888C71.4444 82.9074 71.4879 82.797 71.4879 82.6819C71.9393 75.9258 71.5467 69.0249 71.5075 62.2481Z" fill="#F7F8F8"/>
<path d="M159.263 133.198C159.247 133.137 159.212 133.083 159.164 133.045C159.116 133.006 159.058 132.985 158.998 132.985C158.937 132.985 158.879 133.006 158.831 133.045C158.783 133.083 158.749 133.137 158.733 133.198C158.18 142.07 158.068 150.967 158.399 159.851C158.399 168.735 158.399 177.599 158.713 186.483C158.73 186.549 158.767 186.608 158.818 186.649C158.87 186.691 158.933 186.714 158.998 186.714C159.063 186.714 159.126 186.691 159.177 186.649C159.229 186.608 159.266 186.549 159.282 186.483C159.557 177.599 159.557 168.735 159.596 159.851C159.917 150.966 159.806 142.07 159.263 133.198Z" fill="#F7F8F8"/>
<path d="M174.395 81.2358C174.334 75.3238 173.967 69.4198 173.296 63.5498C173.296 63.1986 172.766 63.3019 172.746 63.5498C172.595 69.8982 172.772 76.2506 173.276 82.5787C173.532 88.4672 173.473 94.5002 174.218 100.327C174.218 100.864 175.082 100.699 175.102 100.203C175.376 93.901 174.748 87.4754 174.395 81.2358Z" fill="#F7F8F8"/>
<path d="M178.321 84.5209C178.307 84.4746 178.28 84.4342 178.242 84.4055C178.205 84.3768 178.161 84.3613 178.115 84.3613C178.069 84.3613 178.024 84.3768 177.987 84.4055C177.95 84.4342 177.922 84.4746 177.908 84.5209C177.388 93.0095 177.349 101.523 177.791 110.017C177.779 110.068 177.778 110.122 177.788 110.175C177.799 110.227 177.821 110.276 177.852 110.318C177.883 110.36 177.923 110.394 177.968 110.417C178.014 110.44 178.064 110.453 178.115 110.453C178.165 110.453 178.215 110.44 178.261 110.417C178.306 110.394 178.346 110.36 178.377 110.318C178.409 110.276 178.43 110.227 178.441 110.175C178.451 110.122 178.451 110.068 178.438 110.017C178.88 101.523 178.841 93.0095 178.321 84.5209Z" fill="#F7F8F8"/>
<path d="M120.439 165.719C120.469 164.11 120.667 162.51 121.028 160.946C120.832 162.558 120.635 164.169 120.439 165.719Z" fill="#291B30"/>
<path d="M141.794 144.211C139.144 127.454 117.259 126.669 117.259 126.669C115.905 119.769 124.738 117.702 124.738 117.702L129.9 113.012C131.969 112.98 134.036 113.188 136.063 113.632C137.341 115.78 138.351 118.092 139.066 120.512C140.619 128.315 141.532 136.243 141.794 144.211Z" fill="#291B30"/>
<path d="M139.38 122.31C121.715 131.049 102.519 123.033 102.519 123.033C103.913 118.901 102.873 97.8262 102.775 93.818C102.775 93.818 102.775 93.6734 102.775 93.6114C102.782 93.46 102.782 93.3082 102.775 93.1568C106.484 84.1072 106.896 66.6692 106.916 60.6775C108.584 60.4089 110.331 60.2643 111.842 60.1816C112.431 66.8759 114.531 84.0453 120.38 83.3015C126.229 82.5577 129.017 67.2684 130.037 60.5742C131.113 60.7642 132.205 60.8404 133.295 60.8015C133.629 60.8015 133.963 60.8015 134.296 60.8015C133.786 69.9544 138.614 89.1899 138.752 89.7271C138.752 89.8717 138.752 90.037 138.752 90.1816C138.752 90.6775 138.614 91.194 138.556 91.7519C138.556 91.7519 138.556 91.9791 138.556 92.1031C137.319 103.756 139.38 122.31 139.38 122.31Z" fill="#AB8DA8"/>
<ellipse opacity="0.3" cx="326.095" cy="154.083" rx="73.3714" ry="76.6833" fill="white"/>
<path d="M323.955 259.933C320.832 259.939 317.717 259.591 314.665 258.896C309.33 257.742 304.305 255.357 299.951 251.912C295.597 248.468 292.023 244.049 289.486 238.976C287.473 234.23 285.978 229.26 285.029 224.159L284.81 223.188C281.682 209.162 277.741 194.329 270.469 180.929C269.296 178.772 268.014 176.615 266.778 174.541C263.789 169.844 261.259 164.842 259.225 159.61C256.097 150.637 256.676 141.715 260.945 135.838C261.507 134.924 262.239 134.14 263.096 133.532C263.954 132.924 264.919 132.504 265.934 132.298C266.552 132.219 267.18 132.275 267.777 132.462C268.374 132.649 268.928 132.963 269.406 133.385C269.778 133.697 270.083 134.089 270.302 134.534C270.52 134.98 270.646 135.469 270.672 135.969H269.656C269.631 135.62 269.538 135.28 269.382 134.971C269.226 134.662 269.01 134.391 268.749 134.175C268.378 133.85 267.948 133.607 267.486 133.46C267.024 133.313 266.539 133.265 266.059 133.319C264.297 133.741 262.757 134.861 261.758 136.447C257.708 142.06 257.067 150.572 260.194 159.198C262.211 164.393 264.726 169.357 267.701 174.014C268.937 176.105 270.219 178.262 271.408 180.435C278.695 193.934 282.683 208.849 285.811 222.958L286.03 223.929C286.959 228.945 288.428 233.833 290.409 238.498C292.874 243.429 296.348 247.721 300.581 251.067C304.813 254.412 309.699 256.726 314.884 257.842C325.37 260.029 336.249 258.477 345.802 253.43C349.628 251.635 353.082 249.068 355.968 245.874C358.904 242.133 361.167 237.859 362.646 233.263C365.257 226.053 367.337 218.447 369.214 211.121C372.107 200.19 375.094 188.88 380.161 178.64C381.725 175.644 383.289 172.697 384.947 169.849C388.051 164.738 390.67 159.318 392.767 153.667C394.565 148.3 394.643 143.789 393.017 140.496C392.446 139.398 391.652 138.446 390.693 137.706C389.734 136.967 388.632 136.458 387.465 136.216C386.65 136.013 385.802 136.013 384.988 136.216C384.173 136.419 383.415 136.819 382.773 137.385L382.101 136.578C382.855 135.899 383.75 135.414 384.714 135.162C385.678 134.911 386.684 134.9 387.653 135.13C388.976 135.417 390.224 136.009 391.305 136.863C392.386 137.717 393.275 138.811 393.908 140.068C395.675 143.69 395.597 148.398 393.705 154.062C391.587 159.784 388.925 165.266 385.76 170.425C384.196 173.274 382.476 176.204 381.069 179.167C376.064 189.308 373.093 200.569 370.215 211.434C368.26 218.809 366.243 226.431 363.6 233.675C362.088 238.398 359.766 242.789 356.75 246.631C353.769 249.927 350.204 252.578 346.256 254.434C339.305 257.996 331.685 259.875 323.955 259.933Z" fill="#AB8DA8"/>
<path d="M335.434 68.2421C336.242 66.891 336.706 65.3428 336.779 63.7478C336.867 63.0314 336.805 62.3034 336.597 61.6151C336.389 60.9267 336.04 60.2948 335.575 59.7638C335.184 59.3687 334.699 59.0559 334.339 58.6279C333.979 58.1999 333.807 57.7554 333.51 57.3438C333.188 56.9023 332.774 56.5449 332.299 56.2993C331.824 56.0538 331.302 55.9267 330.773 55.928C329.694 55.928 328.553 56.4549 327.646 55.928C327.083 55.6317 326.707 55.0391 326.082 54.7098C325.493 54.3944 324.817 54.307 324.174 54.4629C323.611 54.6694 323.017 54.7643 322.422 54.7427C321.578 54.611 320.999 53.8208 320.248 53.3763C319.862 53.1687 319.438 53.0524 319.005 53.0356C318.572 53.0188 318.14 53.1019 317.741 53.2792C317.342 53.4564 316.984 53.7235 316.693 54.0616C316.402 54.3998 316.185 54.8008 316.057 55.2366C315.955 55.6523 315.955 56.0885 316.057 56.5042C316.229 57.5085 316.886 58.3151 316.933 59.3193C316.98 60.3236 316.401 61.1961 316.933 62.0851C317.465 62.9741 318.246 63.007 318.622 63.8466C319.122 64.9825 318.622 66.4641 319.075 67.6824C319.31 68.4561 319.435 69.5591 320.123 70.053C321.077 70.7444 323.157 70.1682 324.299 70.053L328.725 69.6743C330.679 69.4768 333.088 69.6743 334.855 68.6537C335.069 68.5515 335.264 68.4124 335.434 68.2421Z" fill="#3B2645"/>
<path d="M320.42 67.5174C320.265 67.2929 320.062 67.1102 319.826 66.9843C319.591 66.8584 319.331 66.7927 319.068 66.7927C318.804 66.7927 318.544 66.8584 318.309 66.9843C318.073 67.1102 317.87 67.2929 317.715 67.5174C316.354 69.1636 318.653 72.4562 320.42 72.6537C320.523 70.9433 320.523 69.2278 320.42 67.5174Z" fill="#FFEDE5"/>
<path d="M342.393 95.0923C341.981 97.8653 341.428 100.613 340.736 103.324C340.626 103.834 340.532 104.328 340.47 104.805C340.407 105.283 340.345 105.645 340.266 106.254C340.266 106.369 340.266 106.501 340.266 106.616C340.266 107.011 340.157 107.423 340.11 107.867L338.139 127.211C325.894 130.75 313.117 127.211 313.117 127.211C313.117 127.211 313.117 126.964 313.117 126.487C312.914 124.297 312.288 117.333 311.663 109.481C311.663 109.481 311.663 109.365 311.663 109.316C311.669 109.195 311.669 109.074 311.663 108.954C311.397 105.661 311.146 102.171 310.943 98.8458C310.568 93.0674 310.333 87.7335 310.38 84.4245C310.38 83.2063 313.086 83.338 314.931 83.0746C316.292 82.877 317.684 82.7453 318.888 82.6795C320.092 82.6136 320.999 82.5807 321.609 82.5807H322.297C322.297 82.5807 322.453 80.6875 322.453 80.671L322.876 76.0286C323.081 76.0843 323.29 76.1228 323.501 76.1438C323.888 76.2202 324.281 76.2642 324.674 76.2755C325.19 76.2755 325.675 76.2755 326.129 76.2755L326.801 76.1932H327.192C327.63 76.1109 328.052 76.0121 328.443 75.8969C328.834 75.7816 328.959 75.7323 329.21 75.6499C330.352 75.2646 331.437 74.7103 332.431 74.0037L332.572 73.9049L332.838 73.6909L333.025 73.5427C333.025 73.7732 333.025 73.872 333.025 73.9708C332.9 75.0573 332.76 76.4401 332.697 77.8065C332.697 78.7614 332.603 79.6997 332.572 80.5064C332.541 81.3131 332.29 82.4819 332.838 82.8935C333.033 83.009 333.244 83.0923 333.463 83.1404C334.322 83.2831 335.191 83.3437 336.059 83.3215C336.325 83.3215 336.591 83.3215 336.857 83.3215C337.524 83.2806 338.192 83.2806 338.859 83.3215C339.325 83.3201 339.786 83.417 340.216 83.6064C340.646 83.7959 341.035 84.074 341.361 84.4245C341.766 85.0422 342.024 85.7538 342.112 86.4988L342.299 87.8487C342.597 90.2513 342.629 92.6821 342.393 95.0923Z" fill="#FFEDE5"/>
<path d="M332.963 73.4275C332.752 74.6056 332.295 75.7198 331.625 76.6899C330.956 77.66 330.091 78.462 329.092 79.0381C328.093 79.6142 326.985 79.9502 325.848 80.0219C324.711 80.0936 323.573 79.8993 322.516 79.4528L322.813 76.045C324.584 76.4047 326.408 76.357 328.16 75.9052C329.912 75.4534 331.55 74.6082 332.963 73.4275Z" fill="#E0855C" fill-opacity="0.1"/>
<path d="M320.733 62.5788C319.826 63.5665 319.748 65.7725 319.685 68.209C319.451 75.6172 321.562 77.922 325.143 78.3335C328.724 78.7451 332.493 77.2799 333.26 70.4315C333.651 66.9908 334.057 63.8464 332.869 62.3483C331.164 60.1423 323.485 59.5497 320.733 62.5788Z" fill="#FFEDE5"/>
<path d="M332.728 69.4272C332.728 69.4272 333.823 66.3651 335.559 67.9949C337.295 69.6247 334.902 74.2507 332.243 73.905C332.275 73.905 331.915 70.4808 332.728 69.4272Z" fill="#FFEDE5"/>
<path d="M334.793 69.3941C334.382 69.5291 334.015 69.7796 333.729 70.1185C333.406 70.4025 333.145 70.7561 332.963 71.1556C332.963 71.2708 333.073 71.3532 333.151 71.2708C333.371 71.0411 333.58 70.7993 333.776 70.5465C333.919 70.7121 334.095 70.8415 334.292 70.9251C334.449 70.9251 334.574 70.777 334.511 70.6453C334.403 70.4709 334.259 70.3246 334.089 70.2172C334.381 70.0204 334.658 69.8003 334.918 69.5587C334.923 69.5389 334.923 69.5182 334.919 69.4982C334.915 69.4782 334.907 69.4594 334.895 69.4435C334.882 69.4275 334.867 69.4147 334.849 69.4061C334.832 69.3976 334.812 69.3935 334.793 69.3941Z" fill="#E0855C" fill-opacity="0.1"/>
<path d="M322.766 68.0444C322.766 68.0444 322.156 68.2749 322.25 67.139C322.344 66.003 322.766 66.2664 322.766 66.2664C322.766 66.2664 323.189 66.2664 323.126 67.1554C323.064 68.0444 322.766 68.0444 322.766 68.0444Z" fill="#3B2645"/>
<path d="M328.913 68.0444C328.913 68.0444 328.318 68.2749 328.412 67.139C328.506 66.003 328.913 66.2664 328.913 66.2664C328.913 66.2664 329.335 66.2664 329.272 67.1554C329.21 68.0444 328.913 68.0444 328.913 68.0444Z" fill="#3B2645"/>
<path d="M323.424 64.6037C323.178 64.4572 322.895 64.3959 322.614 64.4284C322.333 64.4609 322.069 64.5856 321.86 64.7848C321.849 64.8073 321.844 64.8323 321.845 64.8574C321.846 64.8825 321.853 64.9069 321.866 64.9283C321.878 64.9497 321.896 64.9674 321.917 64.9797C321.938 64.9921 321.961 64.9986 321.985 64.9988C322.204 64.9988 322.391 64.8671 322.61 64.8506C322.84 64.8391 323.069 64.8784 323.283 64.9659C323.486 65.0317 323.627 64.7025 323.424 64.6037Z" fill="#3B2645"/>
<path d="M329.835 65.1634C329.585 64.5049 328.506 64.4555 328.037 64.8506C328.014 64.869 327.996 64.8927 327.983 64.9198C327.97 64.947 327.964 64.9768 327.964 65.007C327.964 65.0372 327.97 65.067 327.983 65.0941C327.996 65.1212 328.014 65.1449 328.037 65.1634C328.318 65.188 328.6 65.188 328.881 65.1634C329.109 65.2019 329.33 65.274 329.538 65.3774C329.565 65.4189 329.606 65.4474 329.653 65.4566C329.7 65.4659 329.749 65.4552 329.788 65.4268C329.828 65.3984 329.855 65.3547 329.864 65.3053C329.872 65.2559 329.862 65.2049 329.835 65.1634Z" fill="#3B2645"/>
<path d="M324.002 73.3452C325.321 73.5273 326.662 73.2863 327.849 72.6538C327.671 73.0931 327.408 73.4884 327.077 73.8145C326.746 74.1405 326.354 74.39 325.925 74.547C324.565 74.9421 324.002 73.3452 324.002 73.3452Z" fill="white"/>
<path d="M316.104 84.4081C319.701 87.0586 320.03 92.2114 318.278 96.327C317.089 99.0763 314.884 101.002 313.586 103.603C312.234 106.126 310.663 108.512 308.895 110.732C305.016 115.918 301.325 120.609 299.902 122.387C295.007 128.544 284.717 136.677 281.01 139.508C280.166 140.167 279.665 140.529 279.665 140.529C279.665 140.529 276.115 138.57 277.053 134.948C277.053 134.948 291.129 119.21 293.209 116C295.507 111.827 297.595 107.53 299.464 103.126C301.862 98.2422 304.359 93.4241 306.955 88.6719C308.144 86.4824 309.661 83.7331 312.273 83.2392C313.327 83.1146 314.391 83.3513 315.307 83.9142C315.583 84.0586 315.85 84.2236 316.104 84.4081Z" fill="#FFEDE5"/>
<path d="M277.053 134.965C277.439 134.934 277.826 134.934 278.211 134.965C278.211 134.965 281.589 136.941 281.01 139.509C281.01 139.509 280.65 139.854 280.087 140.381C279.524 140.908 278.914 141.534 278.179 142.324C277.444 143.114 275.771 145.616 275.052 145.402C274.884 145.337 274.737 145.223 274.629 145.073L273.175 143.427C272.362 142.472 271.001 140.859 272.033 139.591C271.283 140.068 269.531 141.237 268.671 140.678L268.311 140.068C268.311 140.068 270.892 138.044 271.955 137.039C273.39 135.773 275.183 135.044 277.053 134.965Z" fill="#FFEDE5"/>
<path d="M320.373 109.629C320.368 109.717 320.368 109.805 320.373 109.892C320.373 109.892 320.515 109.892 320.483 109.892L320.373 109.629Z" fill="#D6BED3"/>
<path d="M326.175 162.985C324.737 175.117 323.048 185.67 323.048 185.67C323.282 188.6 323.392 191.778 323.392 195.037C323.392 201.425 322.985 208.207 322.469 214.183C321.812 221.805 320.905 228.292 320.514 231.551V231.963C321.093 253.578 315.244 256.443 312.507 251.718C309.77 246.993 312.507 233.066 312.507 233.066C312.516 232.94 312.516 232.813 312.507 232.687C311.355 226.219 310.588 219.682 310.208 213.113C309.27 197.21 310.88 186.329 310.693 184.353C307.424 149.781 311.991 130.718 311.991 130.718C312.704 127.948 313.991 125.378 315.76 123.194C319.091 119.408 323.095 120.363 325.612 124.989C325.877 125.463 326.117 125.952 326.332 126.454C327.358 129.111 327.94 131.935 328.052 134.801C328.302 141.962 327.348 153.008 326.175 162.985Z" fill="#F5A784"/>
<path d="M342.331 212.273C341.967 218.978 341.204 225.653 340.047 232.259L339.907 233.065C339.907 233.065 342.643 247.042 339.907 251.717C337.17 256.393 331.383 253.66 331.899 232.259C331.899 232.16 331.899 232.061 331.899 231.979C331.461 228.884 330.586 222.183 329.898 214.248C329.366 208.223 328.959 201.473 328.959 195.086C328.959 191.793 329.084 188.633 329.319 185.686C329.319 185.686 327.583 175.133 326.191 163.017C325.018 153.024 324.049 141.978 324.455 134.882C324.572 132.015 325.159 129.192 326.191 126.536C326.396 126.018 326.636 125.518 326.91 125.037C329.804 119.753 334.621 119.292 338.171 125.251C339.188 126.979 339.987 128.838 340.548 130.783C340.548 130.783 345.114 149.797 341.846 184.418C341.611 186.361 343.159 196.864 342.331 212.273Z" fill="#F5A784"/>
<path d="M276.678 145.649C276.99 146.029 277.377 146.332 277.812 146.536C278.247 146.741 278.719 146.843 279.196 146.834C279.414 146.781 279.62 146.681 279.801 146.542C279.981 146.402 280.133 146.225 280.247 146.022C280.361 145.819 280.435 145.594 280.464 145.36C280.493 145.126 280.477 144.888 280.416 144.661C280.234 144.16 279.939 143.714 279.556 143.361C277.194 140.891 274.77 138.422 272.315 136.134C271.904 135.647 271.356 135.312 270.751 135.179C270.188 135.178 269.643 135.388 269.214 135.771C268.784 136.154 268.498 136.685 268.405 137.269C268.405 138.323 269.265 138.718 269.969 139.311C272.19 141.385 274.41 143.558 276.678 145.649Z" fill="#3B2645"/>
<path d="M276.334 142.736C276.431 142.63 276.51 142.507 276.568 142.373C276.608 142.203 276.61 142.026 276.575 141.855C276.54 141.684 276.468 141.523 276.365 141.386C275.786 140.381 274.598 138.768 273.425 138.62C273.037 138.599 272.652 138.686 272.306 138.87C271.96 139.055 271.667 139.332 271.454 139.674C271.103 140.205 270.88 140.818 270.804 141.461C270.727 142.103 270.8 142.755 271.016 143.361C271.359 144.452 272.065 145.375 273.002 145.962C273.47 146.171 273.997 146.181 274.472 145.991C274.947 145.801 275.334 145.425 275.552 144.942C275.786 144.332 275.708 143.592 276.083 143.081C276.154 142.957 276.238 142.841 276.334 142.736Z" fill="#FFEDE5"/>
<path d="M336.185 84.4081C332.572 87.0585 332.244 92.2113 334.011 96.327C335.184 99.0763 337.389 101.002 338.703 103.603C340.066 106.119 341.636 108.504 343.394 110.732C347.273 115.918 350.979 120.609 352.387 122.387C357.297 128.577 367.588 136.677 371.294 139.508L372.655 140.529C372.655 140.529 376.189 138.57 375.251 134.948C375.251 134.948 361.176 119.21 359.096 116C356.791 111.831 354.703 107.533 352.84 103.126C350.432 98.1873 347.945 93.4296 345.333 88.6719C344.145 86.4824 342.644 83.7331 340.016 83.2392C338.962 83.1157 337.899 83.3524 336.982 83.9142C336.705 84.0579 336.439 84.2229 336.185 84.4081Z" fill="#FFEDE5"/>
<path d="M375.235 134.965C374.845 134.934 374.453 134.934 374.063 134.965C374.063 134.965 370.685 136.94 371.263 139.509C371.263 139.509 371.639 139.854 372.186 140.381C372.733 140.908 373.374 141.533 374.094 142.324C374.813 143.114 376.518 145.616 377.222 145.402C377.387 145.333 377.532 145.219 377.644 145.073L379.083 143.427C379.912 142.472 381.257 140.858 380.24 139.591C380.975 140.068 382.727 141.237 383.602 140.677L383.9 140.068C383.9 140.068 381.319 138.043 380.24 137.039C378.833 135.789 377.075 135.06 375.235 134.965Z" fill="#FFEDE5"/>
<path d="M375.595 145.649C375.284 146.029 374.897 146.332 374.461 146.537C374.026 146.742 373.554 146.843 373.077 146.835C372.856 146.785 372.647 146.688 372.463 146.55C372.279 146.412 372.123 146.236 372.006 146.033C371.889 145.829 371.812 145.603 371.781 145.367C371.75 145.131 371.766 144.891 371.826 144.662C372.021 144.183 372.321 143.76 372.702 143.427C375.069 140.958 377.487 138.549 379.958 136.2C380.367 135.71 380.916 135.375 381.522 135.245C382.083 135.245 382.626 135.456 383.053 135.839C383.48 136.222 383.763 136.753 383.853 137.336C383.853 138.389 383.008 138.785 382.289 139.377C380.084 141.386 377.863 143.559 375.595 145.649Z" fill="#3B2645"/>
<path d="M375.955 142.736C375.848 142.635 375.763 142.511 375.704 142.373C375.671 142.202 375.674 142.025 375.712 141.854C375.749 141.684 375.822 141.524 375.923 141.386C376.486 140.381 377.675 138.768 378.848 138.62C379.235 138.599 379.621 138.686 379.967 138.87C380.312 139.055 380.606 139.332 380.818 139.674C381.165 140.208 381.383 140.823 381.451 141.466C381.519 142.109 381.436 142.76 381.209 143.361C380.877 144.457 380.169 145.384 379.223 145.962C378.755 146.171 378.229 146.181 377.754 145.991C377.279 145.801 376.892 145.425 376.674 144.942C376.455 144.332 376.533 143.592 376.142 143.081L375.955 142.736Z" fill="#FFEDE5"/>
<path d="M342.565 201.721V203.367C342.565 204.47 342.565 205.606 342.565 206.775V208.108C342.565 209.458 342.471 210.858 342.409 212.29C338.359 213.466 334.19 214.123 329.991 214.249C329.819 212.405 329.475 207.499 329.46 206.956C329.46 205.836 329.225 202.676 329.209 202.248C329.116 199.844 329.053 197.441 329.053 195.086C329.053 192.024 329.162 189.028 329.381 186.246C329.381 186.048 329.381 185.867 329.381 185.686C329.381 185.505 327.645 175.15 326.254 163.017C326.097 164.301 325.941 165.585 325.784 166.82C324.471 177.257 323.079 185.686 323.079 185.686C323.313 188.617 323.423 191.794 323.423 195.053C323.423 197.539 323.423 199.992 323.251 202.593C323.251 203.021 322.938 208.52 322.891 209.047C322.782 210.808 322.641 212.537 322.5 214.199C320.311 214.101 318.153 213.953 316.01 213.755C314.321 213.607 312.194 213.508 310.13 213.195C310.036 211.714 309.973 210.298 309.926 208.915C309.926 208.569 309.926 208.224 309.926 207.878C309.926 206.363 309.926 204.931 309.926 203.548V202.462C309.926 192.485 310.849 185.917 310.708 184.353C307.44 149.781 312.006 130.718 312.006 130.718C312.719 127.947 314.007 125.378 315.775 123.194C317.116 123.413 318.432 123.777 319.701 124.281C321.634 124.812 323.63 125.051 325.628 124.989H327.067C328.803 124.989 330.539 124.775 332.259 124.725H333.416C335.065 124.699 336.712 124.865 338.327 125.219C339.292 126.965 340.038 128.836 340.548 130.783C341.811 136.997 342.554 143.316 342.768 149.666C343.298 161.258 342.99 172.876 341.846 184.419C341.658 185.884 342.487 192.156 342.565 201.721Z" fill="#3B2645"/>
<path d="M279.884 82.4491C279.884 82.3503 279.697 82.3503 279.681 82.4491C278.899 88.0628 279.353 93.9729 279.353 99.7184C279.353 105.793 279.165 111.917 279.509 117.975C279.524 118.04 279.559 118.098 279.608 118.139C279.658 118.18 279.719 118.202 279.783 118.202C279.846 118.202 279.907 118.18 279.957 118.139C280.006 118.098 280.042 118.04 280.056 117.975C280.385 111.917 280.197 105.793 280.197 99.7184C280.197 94.1046 280.651 88.1122 279.884 82.4491Z" fill="#F7F8F8"/>
<path d="M286.718 84.3586C286.701 84.2778 286.659 84.2054 286.598 84.1535C286.537 84.1016 286.46 84.0732 286.382 84.0732C286.303 84.0732 286.227 84.1016 286.166 84.1535C286.105 84.2054 286.062 84.2778 286.046 84.3586C286.046 89.7584 285.717 95.2569 286.046 100.64C286.046 100.732 286.08 100.82 286.142 100.885C286.203 100.949 286.287 100.986 286.374 100.986C286.461 100.986 286.545 100.949 286.606 100.885C286.668 100.82 286.702 100.732 286.702 100.64C287.062 95.2569 286.749 89.7584 286.718 84.3586Z" fill="#F7F8F8"/>
<path d="M356.641 140.891C356.628 140.843 356.6 140.8 356.562 140.769C356.524 140.739 356.478 140.722 356.43 140.722C356.382 140.722 356.335 140.739 356.297 140.769C356.259 140.8 356.231 140.843 356.218 140.891C355.778 147.961 355.689 155.049 355.953 162.128C355.953 169.207 355.953 176.27 356.203 183.348C356.216 183.401 356.246 183.448 356.287 183.481C356.328 183.514 356.378 183.532 356.43 183.532C356.481 183.532 356.532 183.514 356.573 183.481C356.614 183.448 356.643 183.401 356.656 183.348C356.875 176.27 356.875 169.207 356.907 162.128C357.162 155.049 357.073 147.961 356.641 140.891Z" fill="#F7F8F8"/>
<path d="M368.698 99.4882C368.649 94.7776 368.357 90.0733 367.822 85.3962C367.822 85.1163 367.4 85.1986 367.385 85.3962C367.264 90.4545 367.405 95.516 367.807 100.558C368.01 105.25 367.963 110.057 368.557 114.7C368.557 115.128 369.246 114.996 369.261 114.601C369.48 109.58 368.98 104.46 368.698 99.4882Z" fill="#F7F8F8"/>
<path d="M371.826 102.106C371.815 102.069 371.793 102.037 371.764 102.014C371.734 101.991 371.698 101.979 371.662 101.979C371.625 101.979 371.589 101.991 371.56 102.014C371.53 102.037 371.508 102.069 371.498 102.106C371.083 108.87 371.052 115.653 371.404 122.421C371.394 122.462 371.393 122.505 371.402 122.547C371.41 122.588 371.427 122.627 371.452 122.661C371.477 122.694 371.509 122.721 371.545 122.74C371.582 122.758 371.621 122.768 371.662 122.768C371.702 122.768 371.742 122.758 371.778 122.74C371.814 122.721 371.846 122.694 371.871 122.661C371.896 122.627 371.913 122.588 371.922 122.547C371.93 122.505 371.929 122.462 371.92 122.421C372.272 115.653 372.24 108.87 371.826 102.106Z" fill="#F7F8F8"/>
<path d="M325.706 166.804C325.73 165.522 325.888 164.246 326.176 163.001C326.019 164.285 325.863 165.569 325.706 166.804Z" fill="#291B30"/>
<path d="M342.722 149.666C340.61 136.315 323.173 135.689 323.173 135.689C322.094 130.191 329.131 128.544 329.131 128.544L333.244 124.807C334.894 124.781 336.54 124.947 338.155 125.301C339.174 127.012 339.978 128.855 340.548 130.783C341.785 137 342.513 143.318 342.722 149.666Z" fill="#291B30"/>
<path d="M340.798 132.216C326.723 139.179 311.428 132.792 311.428 132.792C312.539 129.499 311.71 112.708 311.632 109.514C311.632 109.514 311.632 109.399 311.632 109.349C311.638 109.229 311.638 109.108 311.632 108.987C314.587 101.776 314.916 87.8819 314.931 83.1077C316.261 82.8937 317.653 82.7785 318.857 82.7126C319.326 88.0465 320.999 101.727 325.66 101.134C330.32 100.542 332.541 88.3593 333.354 83.0254C334.212 83.1768 335.081 83.2375 335.95 83.2065C336.216 83.2065 336.482 83.2065 336.748 83.2065C336.341 90.4995 340.188 105.826 340.298 106.254C340.298 106.369 340.298 106.501 340.298 106.616C340.298 107.011 340.188 107.423 340.142 107.868C340.142 107.868 340.142 108.049 340.142 108.147C339.156 117.432 340.798 132.216 340.798 132.216Z" fill="#AB8DA8"/>
</g>
<rect opacity="0.3" width="428" height="215" rx="22" fill="black"/>
<path fill-rule="evenodd" clip-rule="evenodd" d="M198.828 107.51C198.828 98.2798 205.942 90.7778 214.679 90.7778C223.416 90.7778 230.531 98.2798 230.531 107.51C230.531 116.72 223.416 124.222 214.679 124.222C205.942 124.222 198.828 116.72 198.828 107.51ZM220.494 109.202C220.662 109.025 220.876 108.75 220.922 108.686C221.167 108.347 221.289 107.928 221.289 107.51C221.289 107.04 221.152 106.605 220.892 106.25C220.87 106.227 220.829 106.179 220.774 106.117C220.672 106 220.526 105.832 220.387 105.685C219.132 104.265 215.858 101.942 214.144 101.232C213.884 101.121 213.226 100.877 212.874 100.861C212.537 100.861 212.216 100.942 211.91 101.103C211.527 101.329 211.221 101.684 211.053 102.103C210.946 102.394 210.778 103.265 210.778 103.281C210.609 104.233 210.517 105.782 210.517 107.492C210.517 109.123 210.609 110.606 210.747 111.574C210.751 111.578 210.764 111.647 210.784 111.754C210.847 112.081 210.976 112.763 211.114 113.042C211.451 113.719 212.109 114.139 212.813 114.139H212.874C213.333 114.123 214.297 113.703 214.297 113.687C215.919 112.977 219.117 110.767 220.402 109.299L220.494 109.202Z" fill="#F7F8F8"/>
<defs>
<linearGradient id="paint0_linear_909_3158" x1="428" y1="215" x2="-132.55" y2="128.652" gradientUnits="userSpaceOnUse">
<stop stop-color="#92A3FD"/>
<stop offset="1" stop-color="#9DCEFF"/>
</linearGradient>
</defs>
</svg>
