<svg width="293" height="332" viewBox="0 0 293 332" fill="none" xmlns="http://www.w3.org/2000/svg">
<path d="M293 205.266C293 205.266 236.692 327.415 149.313 331.616C61.9337 335.817 0 290.408 0 290.408V0H293V205.266Z" fill="url(#paint0_linear_909_3066)"/>
<path d="M110.402 264.853C94.6194 302.935 99.1251 328.665 99.1251 328.665C114.101 331.291 129.311 332.366 144.521 331.891C163.793 331.291 181.608 325.54 197.755 316.813C198.302 295.659 190.776 276.78 185.41 266.053C150.901 282.081 120.794 270.104 110.402 264.853Z" fill="#AB8DA8"/>
<path d="M115.038 254.6C113.345 258.101 111.783 261.527 110.428 264.852C120.794 270.103 150.928 282.106 185.41 266.053C182.467 260.176 180.149 256.751 180.149 256.751C180.149 256.751 136.264 210.942 115.038 254.6Z" fill="#FEF9EF"/>
<path d="M149.313 331.616V318.438L161.241 310.487L153.35 321.064L154.157 331.241L149.313 331.616Z" fill="#543753"/>
<path d="M92.614 172.084C92.614 172.084 91.4159 172.509 91.2076 184.162C90.9992 195.814 90.0877 218.994 90.0877 218.994C90.0877 218.994 79.0709 209.167 78.2635 204.216C77.4561 199.265 77.7947 194.814 77.2478 192.088C76.7008 189.363 76.5966 181.911 76.831 180.511C77.0654 179.111 73.3671 178.886 72.3514 180.961C71.3357 183.036 70.9971 189.938 70.4762 190.188C69.9553 190.438 63.9911 190.963 63.4182 192.213C62.8452 193.463 63.8609 195.739 62.9754 197.639C62.0899 199.54 63.0535 200.89 62.9754 202.34C62.8973 203.791 62.5326 204.341 63.2098 206.541C63.887 208.741 64.0172 210.592 65.111 210.942L66.2049 211.292L70.0334 212.542C70.0334 212.542 86.4414 248.024 94.5673 248.799C102.693 249.575 106.938 243.373 107.954 238.372C108.97 233.371 114.413 203.415 114.413 203.415L92.614 172.084Z" fill="#FFEDE5"/>
<path d="M101.834 196.739L110.845 223.019L114.413 203.39L101.834 196.739Z" fill="#E0855C"/>
<path d="M90.0876 218.968C90.0876 218.968 97.7447 225.145 100.271 230.221C100.271 230.221 96.1821 219.819 90.2439 214.993L90.0876 218.968Z" fill="#E0855C"/>
<path d="M67.4811 210.792C67.4811 210.792 75.4768 210.592 76.1279 210.117C76.779 209.642 76.805 207.391 76.4665 207.116C76.4665 207.116 77.1176 203.841 76.5186 202.99C76.5186 202.99 76.753 200.565 76.4925 199.14C76.4925 199.14 77.8208 206.441 77.6645 207.591C77.5082 208.742 78.1333 210.692 74.5392 211.267C70.9451 211.842 67.4811 210.792 67.4811 210.792Z" fill="#E0855C"/>
<path d="M76.5185 203.04C76.4925 203.04 76.4925 203.04 76.4664 203.04C76.3362 203.015 76.232 202.89 76.2581 202.765C76.5966 200.74 76.0497 196.814 76.0497 196.789V196.739V196.689C76.2841 195.814 76.779 193.338 76.1018 192.588C75.5028 191.913 69.7209 191.738 66.2049 191.788C66.0747 191.788 65.9445 191.688 65.9445 191.538C65.9445 191.388 66.0486 191.288 66.2049 191.288C67.7676 191.263 75.5549 191.213 76.4925 192.263C77.4301 193.313 76.7008 196.239 76.5706 196.764C76.6227 197.239 77.0915 200.84 76.7529 202.84C76.7529 202.965 76.6227 203.04 76.5185 203.04Z" fill="#472938"/>
<path d="M76.3102 196.989C76.3102 196.989 76.2842 196.989 76.3102 196.989L67.9239 196.614C67.7676 196.614 67.6635 196.489 67.6635 196.364C67.6635 196.214 67.7676 196.114 67.9239 196.114L76.3102 196.489C76.4665 196.489 76.5707 196.614 76.5707 196.739C76.5707 196.889 76.4404 196.989 76.3102 196.989Z" fill="#472938"/>
<path d="M76.4404 207.366H68.1843C68.0281 207.366 67.9239 207.266 67.9239 207.116C67.9239 206.966 68.0281 206.866 68.1843 206.866H76.4404C76.5967 206.866 76.7009 206.966 76.7009 207.116C76.7009 207.266 76.5967 207.366 76.4404 207.366Z" fill="#472938"/>
<path d="M76.5966 201.915H67.1165C66.9602 201.915 66.856 201.815 66.856 201.665C66.856 201.515 66.9602 201.415 67.1165 201.415H76.5966C76.7529 201.415 76.8571 201.515 76.8571 201.665C76.8571 201.815 76.7529 201.915 76.5966 201.915Z" fill="#472938"/>
<path d="M217.966 159.907L233.749 159.332C234.426 159.307 234.999 159.807 235.025 160.457L236.249 191.713C236.275 192.363 235.754 192.913 235.077 192.938L219.294 193.513C218.617 193.538 218.044 193.038 218.018 192.388L216.794 161.132C216.768 160.457 217.289 159.932 217.966 159.907Z" fill="#3B2645"/>
<path d="M219.242 192.488C219.138 192.488 219.06 192.413 219.06 192.313L217.836 161.057C217.836 161.007 217.862 160.957 217.888 160.932C217.914 160.907 217.966 160.882 218.018 160.882L233.801 160.307C233.905 160.307 233.983 160.382 233.983 160.482L235.207 191.738C235.207 191.838 235.129 191.913 235.025 191.913L219.242 192.488Z" fill="#FEF9EF"/>
<path d="M169.028 156.031C169.028 156.031 185.593 157.632 188.666 170.534C191.739 183.437 197.417 214.093 197.417 214.093C197.417 214.093 209.501 195.514 210.465 192.563C211.429 189.613 214.554 179.636 214.45 176.235C214.346 172.835 217.81 175.26 217.81 179.311L218.331 192.714C218.357 193.164 218.747 193.514 219.216 193.489H219.242L235.233 192.338C235.78 192.313 236.171 191.863 236.145 191.338V191.163C236.145 191.163 234.999 188.888 235.338 187.838C235.676 186.787 238.411 186.687 238.723 186.937C239.036 187.187 240.729 190.313 240.677 191.163C240.625 192.013 238.645 194.664 237.343 195.064C236.041 195.464 223.071 198.465 220.414 202.315C217.758 206.166 206.142 239.898 196.714 242.498C187.286 245.099 178.092 220.569 175.93 213.393C173.769 206.216 169.028 156.031 169.028 156.031Z" fill="#FFEDE5"/>
<path d="M173.196 195.814C174.211 204.091 175.227 211.042 175.93 213.368C176.946 216.718 179.498 223.895 182.91 230.296L183.952 183.162L173.196 195.814Z" fill="#E0855C"/>
<path d="M235.702 178.036C235.702 178.036 241.354 180.811 241.25 181.986C241.145 183.162 240.078 185.262 238.984 185.162C237.89 185.062 235.832 184.012 235.259 182.787C234.686 181.561 234.4 177.635 235.702 178.036Z" fill="#FFEDE5"/>
<path d="M235.989 182.111C235.989 182.111 241.64 184.887 241.536 186.062C241.432 187.237 240.364 189.338 239.27 189.238C238.176 189.138 236.119 188.087 235.546 186.862C234.973 185.637 234.686 181.711 235.989 182.111Z" fill="#FFEDE5"/>
<path d="M235.989 173.085C235.989 173.085 241.64 175.86 241.536 177.035C241.432 178.211 240.364 180.311 239.27 180.211C238.176 180.111 236.119 179.061 235.546 177.836C234.973 176.61 234.686 172.659 235.989 173.085Z" fill="#FFEDE5"/>
<path d="M192.312 224.02C192.26 224.02 192.234 224.02 192.182 223.995C192.052 223.945 192 223.77 192.078 223.67L197.182 213.993C197.235 213.868 197.417 213.818 197.521 213.893C197.651 213.943 197.703 214.118 197.625 214.218L192.52 223.895C192.494 223.97 192.416 224.02 192.312 224.02Z" fill="#472938"/>
<path d="M119.153 237.747C119.179 245.874 115.038 254.575 115.038 254.575C115.038 254.575 143.713 270.028 180.123 256.726C180.123 256.726 175.67 245.724 176.243 234.221C146.812 228.97 119.153 237.747 119.153 237.747Z" fill="#FFEDE5"/>
<path d="M92.614 172.084C90.4784 175.16 98.7084 190.463 106.574 205.941C113.736 190.563 109.543 171.884 107.121 163.857C101.573 165.908 94.7757 168.933 92.614 172.084Z" fill="#FFEDE5"/>
<path d="M176.243 234.246C176.295 233.046 176.425 231.846 176.607 230.646C176.711 229.92 176.842 229.145 176.972 228.32C153.61 222.194 125.795 229.195 117.955 231.421C118.71 233.896 119.153 236.047 119.153 237.747C119.153 237.747 146.812 228.97 176.243 234.246Z" fill="#FEF9EF"/>
<path d="M106.574 206.766C106.47 206.766 106.392 206.716 106.339 206.616L100.532 194.614C100.479 194.488 100.532 194.338 100.662 194.288C100.792 194.238 100.948 194.288 101 194.413L106.808 206.416C106.86 206.541 106.808 206.691 106.678 206.741C106.652 206.766 106.6 206.766 106.574 206.766Z" fill="#472938"/>
<path d="M151.11 259.752C151.513 259.752 151.839 259.438 151.839 259.051C151.839 258.665 151.513 258.351 151.11 258.351C150.707 258.351 150.381 258.665 150.381 259.051C150.381 259.438 150.707 259.752 151.11 259.752Z" fill="#E0855C"/>
<path d="M182.702 184.637C182.702 184.462 182.702 184.286 182.702 184.136C182.702 184.061 182.702 183.961 182.702 183.886C182.702 183.686 182.702 183.511 182.676 183.311C182.676 183.261 182.676 183.211 182.676 183.136C182.676 182.886 182.65 182.661 182.65 182.436V182.286C182.65 182.111 182.624 181.911 182.624 181.736C182.624 181.661 182.624 181.586 182.598 181.511C182.598 181.361 182.572 181.211 182.572 181.086L182.546 180.836C182.546 180.711 182.519 180.561 182.493 180.436C182.493 180.361 182.467 180.286 182.467 180.186C182.441 180.036 182.441 179.911 182.415 179.761C182.415 179.686 182.389 179.636 182.389 179.561C182.363 179.36 182.337 179.16 182.285 178.96C180.254 167.108 169.002 156.006 169.002 156.006C169.002 156.006 173.378 172.684 174.784 174.635C179.915 181.786 182.78 186.087 182.415 191.788C182.441 191.488 182.467 191.213 182.493 190.913C182.493 190.838 182.493 190.763 182.493 190.688C182.519 190.463 182.519 190.238 182.546 190.038C182.546 189.963 182.546 189.863 182.572 189.788C182.572 189.588 182.598 189.387 182.598 189.162L182.624 188.912C182.624 188.687 182.65 188.487 182.65 188.287C182.65 188.212 182.65 188.162 182.65 188.087C182.676 187.537 182.702 186.987 182.702 186.437C182.702 186.362 182.702 186.312 182.702 186.237C182.702 186.037 182.702 185.837 182.702 185.637V185.387C182.702 185.212 182.702 185.037 182.702 184.862V184.637Z" fill="#FFEDE5"/>
<path d="M174.784 174.66C173.378 172.709 169.028 156.031 169.028 156.031H165.721L115.038 161.232C115.038 161.232 111.47 162.232 107.121 163.833C109.517 171.859 113.736 190.563 106.574 205.916C111.288 215.218 115.846 224.57 117.929 231.421C125.769 229.171 153.584 222.194 176.946 228.32C178.483 218.868 181.452 203.815 182.415 191.813C182.78 186.112 179.915 181.811 174.784 174.66Z" fill="#AB8DA8"/>
<path d="M123.529 218.218C122.279 218.218 120.976 218.068 119.596 217.743C119.466 217.718 119.362 217.568 119.414 217.443C119.44 217.318 119.596 217.218 119.726 217.268C124.675 218.468 128.686 217.093 132.905 215.668C136.916 214.293 141.057 212.892 146.37 213.467C157.1 214.618 174.576 211.842 174.758 211.817C174.914 211.792 175.045 211.892 175.071 212.017C175.097 212.142 174.993 212.292 174.862 212.317C174.68 212.342 157.126 215.143 146.344 213.993C141.161 213.442 137.072 214.818 133.113 216.168C129.936 217.193 126.915 218.218 123.529 218.218Z" fill="#472938"/>
<path d="M163.585 89.3677C163.585 89.3677 177.18 90.668 173.091 108.021C169.002 125.375 173.039 124.6 176.581 133.777C180.123 142.953 161.606 136.877 161.606 136.877C161.606 136.877 171.034 150.43 120.924 144.579C79.5918 139.753 107.173 119.074 107.173 119.074C107.173 119.074 94.7497 120.649 109.621 108.046C120.091 99.1697 125.664 66.5382 163.585 89.3677Z" fill="#3B2645"/>
<path d="M154.574 137.377C154.574 137.377 150.381 151.505 156.137 154.131C160.564 156.156 165.721 156.031 165.721 156.031C165.721 156.031 163.95 193.488 142.073 193.888C120.195 194.288 115.038 161.232 115.038 161.232C115.038 161.232 123.946 158.231 126.602 152.355C129.259 146.479 129.389 138.252 129.389 138.252L154.574 137.377Z" fill="#FFEDE5"/>
<path d="M165.084 126.696C167.313 122.989 167.263 118.953 164.971 117.683C162.679 116.412 159.013 118.388 156.784 122.095C154.554 125.803 154.605 129.838 156.897 131.109C159.189 132.379 162.854 130.404 165.084 126.696Z" fill="#E0855C"/>
<path d="M159.626 126.975C159.548 126.975 159.496 126.95 159.444 126.9C159.34 126.8 159.34 126.65 159.444 126.55L163.377 122.999C163.481 122.899 163.637 122.899 163.742 122.999C163.846 123.099 163.846 123.249 163.742 123.349L159.809 126.9C159.757 126.975 159.705 126.975 159.626 126.975Z" fill="#472938"/>
<path d="M124.105 128.291C126.681 127.706 127.936 123.855 126.91 119.689C125.884 115.523 122.964 112.62 120.388 113.205C117.813 113.79 116.557 117.641 117.583 121.807C118.61 125.973 121.53 128.876 124.105 128.291Z" fill="#FFEDE5"/>
<path d="M153.272 149.43C152.49 144.379 154.574 137.352 154.574 137.352L129.363 138.252C129.363 138.252 129.337 140.078 129.024 142.628C129.024 142.653 141.604 157.281 153.272 149.43Z" fill="#E0855C"/>
<path d="M123.425 123.174C123.347 123.174 123.268 123.124 123.216 123.049L120.716 119.374C120.638 119.249 120.664 119.099 120.794 119.024C120.924 118.949 121.081 118.974 121.159 119.099L123.659 122.774C123.737 122.899 123.711 123.049 123.581 123.124C123.529 123.174 123.477 123.174 123.425 123.174Z" fill="#472938"/>
<path d="M125.091 96.7941C125.091 96.7941 116.132 143.228 137.176 148.054C158.22 152.88 165.721 109.572 165.174 100.57C164.627 91.5681 128.217 88.8425 125.091 96.7941Z" fill="#FFEDE5"/>
<path d="M153.089 118.023C153.766 118.148 154.209 118.773 154.105 119.424L153.975 120.149C153.845 120.799 153.194 121.224 152.516 121.124C151.839 120.999 151.396 120.374 151.501 119.724L151.631 118.999C151.761 118.348 152.412 117.898 153.089 118.023Z" fill="#472938"/>
<path d="M133.478 115.923C134.181 115.923 134.728 116.448 134.728 117.123V117.848C134.728 118.498 134.181 119.048 133.478 119.048C132.801 119.048 132.228 118.523 132.228 117.848V117.123C132.228 116.448 132.775 115.923 133.478 115.923Z" fill="#472938"/>
<path d="M157.673 116.773C157.673 116.773 156.736 115.423 154.027 114.973C151.318 114.523 150.459 114.673 150.433 113.848C150.407 113.022 156.475 111.747 157.673 116.773Z" fill="#472938"/>
<path d="M129.545 113.347C129.545 113.347 130.899 112.372 133.608 112.797C136.317 113.247 137.072 113.647 137.384 112.872C137.697 112.097 132.41 108.971 129.545 113.347Z" fill="#472938"/>
<path d="M134.702 131.051L145.953 132.276C145.953 132.276 144.208 139.578 139.234 138.728C134.285 137.902 134.702 131.051 134.702 131.051Z" fill="white"/>
<path d="M142.151 129.251C141.369 129.251 140.51 129.051 139.728 128.701C139.598 128.651 139.546 128.5 139.598 128.375C139.65 128.25 139.807 128.2 139.937 128.25C141.083 128.776 142.359 128.901 143.218 128.576C143.583 128.45 143.817 128.25 143.922 128.025C144.26 127.25 144.13 124.85 143.974 122.074L143.922 121.099C143.635 115.973 146.839 114.998 146.969 114.948C147.099 114.898 147.255 114.973 147.281 115.123C147.333 115.248 147.255 115.398 147.099 115.423C146.969 115.448 144.156 116.348 144.416 121.074L144.469 122.049C144.625 125 144.781 127.35 144.364 128.225C144.208 128.575 143.87 128.876 143.375 129.051C143.062 129.201 142.619 129.251 142.151 129.251Z" fill="#472938"/>
<path d="M161.606 122.624C161.606 122.624 163.299 110.097 157.673 103.245C157.673 103.245 152.907 111.897 145.094 108.897C145.094 108.897 134.363 117.823 123.425 115.223C112.486 112.622 116.367 88.0674 132.228 87.0172C148.089 85.967 180.358 92.0932 161.606 122.624Z" fill="#3B2645"/>
<defs>
<linearGradient id="paint0_linear_909_3066" x1="293" y1="331.89" x2="-98.0219" y2="305.178" gradientUnits="userSpaceOnUse">
<stop stop-color="#92A3FD"/>
<stop offset="1" stop-color="#9DCEFF"/>
</linearGradient>
</defs>
</svg>
