<svg width="338" height="393" viewBox="0 0 338 393" fill="none" xmlns="http://www.w3.org/2000/svg">
<path d="M233.052 309.514C248.834 347.597 244.329 373.327 244.329 373.327C229.353 375.952 214.143 377.028 198.933 376.552C179.66 375.952 161.846 370.201 145.698 361.474C145.152 340.32 152.678 321.442 158.044 310.714C192.552 326.743 222.66 314.765 233.052 309.514Z" fill="#AB8DA8"/>
<path d="M228.416 299.262C230.108 302.763 231.671 306.188 233.025 309.514C222.66 314.765 192.526 326.767 158.043 310.714C160.986 304.838 163.304 301.412 163.304 301.412C163.304 301.412 207.189 255.603 228.416 299.262Z" fill="#FEF9EF"/>
<path d="M194.141 376.278V363.1L182.213 355.148L190.104 365.726L189.297 375.903L194.141 376.278Z" fill="#543753"/>
<path d="M250.84 216.746C250.84 216.746 252.038 217.171 252.246 228.823C252.455 240.476 253.366 263.655 253.366 263.655C253.366 263.655 264.383 253.828 265.19 248.877C265.998 243.926 265.659 239.476 266.206 236.75C266.753 234.025 266.857 226.573 266.623 225.173C266.388 223.772 270.087 223.547 271.102 225.623C272.118 227.698 272.457 234.6 272.978 234.85C273.499 235.1 279.463 235.625 280.036 236.875C280.609 238.125 279.593 240.401 280.478 242.301C281.364 244.202 280.4 245.552 280.478 247.002C280.557 248.452 280.921 249.002 280.244 251.203C279.567 253.403 279.437 255.254 278.343 255.604L277.249 255.954L273.42 257.204C273.42 257.204 257.012 292.686 248.887 293.461C240.761 294.236 236.515 288.035 235.5 283.034C234.484 278.033 229.041 248.077 229.041 248.077L250.84 216.746Z" fill="#FFEDE5"/>
<path d="M241.62 241.401L232.609 267.681L229.041 248.052L241.62 241.401Z" fill="#E0855C"/>
<path d="M253.366 263.63C253.366 263.63 245.709 269.806 243.183 274.882C243.183 274.882 247.272 264.48 253.21 259.654L253.366 263.63Z" fill="#E0855C"/>
<path d="M275.973 255.454C275.973 255.454 267.977 255.254 267.326 254.779C266.675 254.304 266.649 252.053 266.987 251.778C266.987 251.778 266.336 248.503 266.935 247.653C266.935 247.653 266.701 245.227 266.961 243.802C266.961 243.802 265.633 251.103 265.789 252.253C265.946 253.404 265.321 255.354 268.915 255.929C272.509 256.504 275.973 255.454 275.973 255.454Z" fill="#E0855C"/>
<path d="M266.935 247.702C266.961 247.702 266.961 247.702 266.987 247.702C267.118 247.677 267.222 247.552 267.196 247.427C266.857 245.402 267.404 241.476 267.404 241.451V241.401V241.351C267.17 240.476 266.675 238 267.352 237.25C267.951 236.575 273.733 236.4 277.249 236.45C277.379 236.45 277.509 236.35 277.509 236.2C277.509 236.05 277.405 235.95 277.249 235.95C275.686 235.925 267.899 235.875 266.961 236.925C266.024 237.975 266.753 240.901 266.883 241.426C266.831 241.901 266.362 245.502 266.701 247.502C266.701 247.627 266.831 247.702 266.935 247.702Z" fill="#472938"/>
<path d="M267.144 241.651C267.144 241.651 267.17 241.651 267.144 241.651L275.53 241.276C275.686 241.276 275.79 241.151 275.79 241.026C275.79 240.876 275.686 240.776 275.53 240.776L267.144 241.151C266.987 241.151 266.883 241.276 266.883 241.401C266.883 241.551 267.013 241.651 267.144 241.651Z" fill="#472938"/>
<path d="M267.013 252.028H275.27C275.426 252.028 275.53 251.928 275.53 251.778C275.53 251.628 275.426 251.528 275.27 251.528H267.013C266.857 251.528 266.753 251.628 266.753 251.778C266.753 251.928 266.857 252.028 267.013 252.028Z" fill="#472938"/>
<path d="M266.857 246.577H276.337C276.494 246.577 276.598 246.477 276.598 246.327C276.598 246.177 276.494 246.077 276.337 246.077H266.857C266.701 246.077 266.597 246.177 266.597 246.327C266.597 246.477 266.701 246.577 266.857 246.577Z" fill="#472938"/>
<path d="M125.488 204.569L109.705 203.994C109.028 203.969 108.455 204.469 108.429 205.119L107.205 236.375C107.179 237.025 107.7 237.575 108.377 237.6L124.16 238.175C124.837 238.2 125.41 237.7 125.436 237.05L126.66 205.794C126.686 205.119 126.165 204.594 125.488 204.569Z" fill="#3B2645"/>
<path d="M124.212 237.15C124.316 237.15 124.394 237.075 124.394 236.975L125.618 205.719C125.618 205.669 125.592 205.619 125.566 205.594C125.54 205.569 125.488 205.544 125.436 205.544L109.653 204.969C109.549 204.969 109.471 205.044 109.471 205.144L108.247 236.4C108.247 236.5 108.325 236.575 108.429 236.575L124.212 237.15Z" fill="#FEF9EF"/>
<path d="M174.425 200.693C174.425 200.693 157.861 202.293 154.788 215.196C151.715 228.099 146.037 258.755 146.037 258.755C146.037 258.755 133.952 240.176 132.989 237.225C132.025 234.275 128.9 224.298 129.004 220.897C129.108 217.496 125.644 219.922 125.644 223.973L125.123 237.375C125.097 237.825 124.707 238.176 124.238 238.151H124.212L108.221 237C107.674 236.975 107.283 236.525 107.309 236V235.825C107.309 235.825 108.455 233.55 108.116 232.499C107.778 231.449 105.043 231.349 104.731 231.599C104.418 231.849 102.725 234.975 102.777 235.825C102.829 236.675 104.809 239.326 106.111 239.726C107.413 240.126 120.383 243.127 123.04 246.977C125.696 250.828 137.312 284.56 146.74 287.16C156.168 289.761 165.362 265.231 167.524 258.054C169.685 250.878 174.425 200.693 174.425 200.693Z" fill="#FFEDE5"/>
<path d="M170.258 240.476C169.243 248.752 168.227 255.704 167.524 258.029C166.508 261.38 163.956 268.556 160.544 274.958L159.502 227.823L170.258 240.476Z" fill="#E0855C"/>
<path d="M107.752 222.697C107.752 222.697 102.1 225.473 102.204 226.648C102.308 227.823 103.376 229.924 104.47 229.824C105.564 229.724 107.622 228.674 108.195 227.448C108.768 226.223 109.054 222.297 107.752 222.697Z" fill="#FFEDE5"/>
<path d="M107.465 226.773C107.465 226.773 101.814 229.549 101.918 230.724C102.022 231.899 103.09 234 104.184 233.9C105.278 233.8 107.335 232.749 107.908 231.524C108.481 230.299 108.767 226.373 107.465 226.773Z" fill="#FFEDE5"/>
<path d="M107.465 217.747C107.465 217.747 101.814 220.522 101.918 221.697C102.022 222.873 103.09 224.973 104.184 224.873C105.278 224.773 107.335 223.723 107.908 222.498C108.481 221.272 108.767 217.322 107.465 217.747Z" fill="#FFEDE5"/>
<path d="M151.142 268.682C151.194 268.682 151.22 268.682 151.272 268.657C151.402 268.607 151.454 268.432 151.376 268.332L146.271 258.655C146.219 258.53 146.037 258.48 145.933 258.555C145.803 258.605 145.751 258.78 145.829 258.88L150.933 268.557C150.959 268.632 151.038 268.682 151.142 268.682Z" fill="#472938"/>
<path d="M224.301 282.409C224.275 290.536 228.416 299.237 228.416 299.237C228.416 299.237 199.741 314.691 163.331 301.388C163.331 301.388 167.784 290.386 167.211 278.883C196.641 273.632 224.301 282.409 224.301 282.409Z" fill="#FFEDE5"/>
<path d="M250.84 216.746C252.976 219.822 244.745 235.125 236.88 250.603C229.718 235.225 233.911 216.546 236.333 208.52C241.881 210.57 248.678 213.596 250.84 216.746Z" fill="#FFEDE5"/>
<path d="M167.211 278.908C167.159 277.708 167.029 276.507 166.847 275.307C166.742 274.582 166.612 273.807 166.482 272.982C189.844 266.856 217.659 273.857 225.499 276.082C224.743 278.558 224.301 280.708 224.301 282.409C224.301 282.409 196.641 273.632 167.211 278.908Z" fill="#FEF9EF"/>
<path d="M236.88 251.428C236.984 251.428 237.062 251.378 237.114 251.278L242.922 239.275C242.974 239.15 242.922 239 242.792 238.95C242.662 238.9 242.506 238.95 242.454 239.075L236.646 251.078C236.594 251.203 236.646 251.353 236.776 251.403C236.802 251.428 236.854 251.428 236.88 251.428Z" fill="#472938"/>
<path d="M192.344 304.413C191.941 304.413 191.615 304.1 191.615 303.713C191.615 303.327 191.941 303.013 192.344 303.013C192.747 303.013 193.073 303.327 193.073 303.713C193.073 304.1 192.747 304.413 192.344 304.413Z" fill="#E0855C"/>
<path d="M160.752 229.298C160.752 229.123 160.752 228.948 160.752 228.798C160.752 228.723 160.752 228.623 160.752 228.548C160.752 228.348 160.752 228.173 160.778 227.973C160.778 227.923 160.778 227.873 160.778 227.798C160.778 227.548 160.804 227.323 160.804 227.098V226.948C160.804 226.773 160.83 226.573 160.83 226.398C160.83 226.323 160.83 226.248 160.856 226.173C160.856 226.023 160.882 225.873 160.882 225.748L160.908 225.498C160.908 225.373 160.934 225.223 160.96 225.098C160.96 225.023 160.987 224.948 160.987 224.848C161.013 224.697 161.013 224.572 161.039 224.422C161.039 224.347 161.065 224.297 161.065 224.222C161.091 224.022 161.117 223.822 161.169 223.622C163.2 211.77 174.452 200.668 174.452 200.668C174.452 200.668 170.076 217.346 168.67 219.296C163.539 226.448 160.674 230.749 161.039 236.45C161.013 236.15 160.987 235.875 160.96 235.575C160.96 235.5 160.96 235.425 160.96 235.35C160.934 235.125 160.934 234.9 160.908 234.699C160.908 234.624 160.908 234.524 160.882 234.449C160.882 234.249 160.856 234.049 160.856 233.824L160.83 233.574C160.83 233.349 160.804 233.149 160.804 232.949C160.804 232.874 160.804 232.824 160.804 232.749C160.778 232.199 160.752 231.649 160.752 231.099C160.752 231.024 160.752 230.974 160.752 230.899C160.752 230.699 160.752 230.499 160.752 230.299V230.049C160.752 229.874 160.752 229.698 160.752 229.523V229.298Z" fill="#FFEDE5"/>
<path d="M168.67 219.322C170.076 217.371 174.425 200.693 174.425 200.693H177.733L228.416 205.894C228.416 205.894 231.984 206.894 236.333 208.494C233.937 216.521 229.718 235.225 236.88 250.578C232.166 259.88 227.608 269.231 225.525 276.083C217.685 273.832 189.87 266.856 166.508 272.982C164.971 263.53 162.002 248.477 161.039 236.475C160.674 230.774 163.539 226.473 168.67 219.322Z" fill="#AB8DA8"/>
<path d="M219.925 262.88C221.175 262.88 222.477 262.73 223.858 262.405C223.988 262.38 224.092 262.23 224.04 262.105C224.014 261.98 223.858 261.88 223.728 261.93C218.779 263.13 214.768 261.755 210.549 260.33C206.538 258.954 202.397 257.554 197.084 258.129C186.354 259.279 168.878 256.504 168.696 256.479C168.539 256.454 168.409 256.554 168.383 256.679C168.357 256.804 168.461 256.954 168.592 256.979C168.774 257.004 186.328 259.805 197.11 258.654C202.293 258.104 206.382 259.48 210.341 260.83C213.518 261.855 216.539 262.88 219.925 262.88Z" fill="#472938"/>
<path d="M281.474 251.222C322.568 173.312 309.526 85.4952 252.346 55.0769C195.166 24.6587 115.499 63.158 74.406 141.068C33.3127 218.977 46.3538 306.794 103.534 337.212C160.714 367.631 240.381 329.131 281.474 251.222Z" fill="#97BEFC"/>
<path d="M148.751 371.661C179.989 371.661 205.312 371.026 205.312 370.242C205.312 369.458 179.989 368.823 148.751 368.823C117.513 368.823 92.1898 369.458 92.1898 370.242C92.1898 371.026 117.513 371.661 148.751 371.661Z" fill="#3B2645"/>
<path d="M148.895 370.242C186.345 370.242 216.705 339.935 216.705 302.548C216.705 265.162 186.345 234.854 148.895 234.854C111.445 234.854 81.0853 265.162 81.0853 302.548C81.0853 339.935 111.445 370.242 148.895 370.242Z" fill="#FA9E97"/>
<path d="M137.04 349.85C131.705 349.85 126.369 349.242 121.09 347.967C102.4 343.535 86.6231 331.717 76.6723 314.656C66.7215 297.624 63.8084 277.406 68.4232 257.737C73.0381 238.069 84.6618 221.327 101.16 210.551C117.658 199.776 137.04 196.3 155.731 200.732C174.421 205.164 190.198 216.982 200.149 234.043C210.1 251.075 213.013 271.294 208.398 290.962C203.783 310.63 192.13 327.372 175.661 338.148C163.836 345.853 150.539 349.85 137.04 349.85ZM139.867 199.457C107.188 199.457 77.1338 223.123 68.9424 257.882C64.3564 277.406 67.2695 297.45 77.1338 314.366C86.9981 331.283 102.66 343.014 121.206 347.417C126.455 348.662 131.762 349.271 137.04 349.271C150.424 349.271 163.605 345.331 175.344 337.655C191.698 326.967 203.235 310.34 207.85 290.817C212.436 271.294 209.523 251.249 199.658 234.333C189.794 217.416 174.132 205.685 155.586 201.282C150.337 200.037 145.059 199.457 139.867 199.457Z" fill="white"/>
<path d="M114.312 314.917C107.996 314.917 102.227 313.324 97.295 310.08C87.0558 303.359 81.691 290.469 82.239 273.756C82.787 257.071 89.1036 238.591 100.064 221.704C111.024 204.816 125.301 191.521 140.3 184.279C155.298 177.038 169.229 176.748 179.468 183.439C189.708 190.159 195.072 203.049 194.524 219.763C193.976 236.447 187.66 254.928 176.699 271.815C165.739 288.702 151.462 301.998 136.464 309.24C128.676 313.034 121.177 314.917 114.312 314.917ZM100.266 221.819L100.439 221.935C89.5074 238.765 83.2196 257.187 82.6716 273.756C82.1525 290.325 87.4307 303.07 97.5257 309.703C118.437 323.404 153.798 306.285 176.325 271.583C198.851 236.882 200.149 197.488 179.238 183.816C158.327 170.115 122.965 187.234 100.439 221.935L100.266 221.819Z" fill="white"/>
<path d="M108.284 288.934C104.131 288.934 100.727 287.689 98.7371 285.082C96.0835 281.664 96.1701 276.45 98.9967 270.425C101.794 264.429 106.9 258.346 113.447 253.248L113.562 253.393L113.447 253.248C126.974 242.704 142.405 239.865 147.828 246.904C153.25 253.943 146.645 268.223 133.118 278.767C124.58 285.342 115.322 288.934 108.284 288.934ZM113.678 253.537C107.188 258.577 102.112 264.631 99.3428 270.57C96.6027 276.45 96.4873 281.519 99.0544 284.821C104.333 291.686 119.504 288.789 132.887 278.39C146.27 267.992 152.818 253.943 147.51 247.107C142.203 240.271 127.032 243.138 113.678 253.537Z" fill="white"/>
<g opacity="0.3">
<path opacity="0.3" d="M206.35 266.601C208.802 273.524 210.042 280.823 210.013 288.181C210.013 323.954 181.141 352.92 145.549 352.92C112.322 352.92 84.9791 327.691 81.4603 295.278C81.2007 297.682 81.0853 300.115 81.0853 302.548C81.0853 339.915 111.457 370.242 148.895 370.242C186.333 370.242 216.705 339.944 216.705 302.577C216.733 289.832 213.128 277.348 206.35 266.601Z" fill="#543753"/>
</g>
<path d="M192.073 115.803C192.073 115.803 187.083 119.018 182.353 126.81C177.622 134.602 172.575 141.931 172.575 141.931C172.575 141.931 170.729 126.144 171.594 124.058C172.459 121.973 175.575 117.367 176.296 115.803C177.017 114.239 180.449 112.008 180.478 111.11C180.507 110.212 180.132 107.403 179.987 107.316C179.843 107.229 178.113 107.866 177.853 108.793C177.651 109.459 177.507 110.039 177.507 110.039C177.507 110.039 175.171 111.342 174.767 111.371C174.363 111.4 172.459 110.386 172.431 110.212C172.402 110.039 174.017 106.273 174.507 106.07C174.998 105.868 177.709 107.982 178.228 107.982C178.747 107.982 179.843 107.287 179.901 106.881C179.959 106.476 176.526 102.942 176.238 102.913C175.949 102.884 173.008 102.363 172.604 102.652C172.2 102.942 170.008 104.854 170.008 104.854C170.008 104.854 170.008 98.2784 170.008 96.9459C170.008 95.6135 169.719 91.5003 169.114 91.2106C168.508 90.9789 167.845 90.9209 167.21 91.0078C166.922 91.0947 166.749 92.9196 166.749 92.9196C166.749 92.9196 165.22 92.6879 164.816 93.0065C164.412 93.3251 163.576 105.781 163.576 105.896C163.576 106.012 161.413 103.376 161.153 102.884C160.894 102.392 159.999 99.3791 159.596 99.2632C159.192 99.1474 158.038 99.0605 157.894 99.3501C157.75 99.6398 158.673 103.985 158.73 104.477C158.788 104.97 161.528 110.821 161.672 111.719C161.816 112.617 162.393 120.148 162.566 121.683C162.739 123.218 160.807 141.264 160.374 148.796C159.942 156.327 160.317 163.076 160.778 163.771C161.24 164.466 165.018 166.928 167.037 165.915C169.056 164.901 174.623 160.527 179.93 155.429C185.237 150.331 191.496 143.64 191.496 143.64L192.073 115.803Z" fill="#FFEDE5"/>
<path d="M172.546 141.902C172.546 141.902 173.065 145.957 173.267 149.607C173.267 149.607 174.392 146.16 173.844 139.99L172.546 141.902Z" fill="#DE835C"/>
<path d="M163.259 109.662C163.23 109.662 163.201 109.662 163.172 109.633C163.114 109.575 163.114 109.488 163.172 109.43C164.037 108.446 168.969 105.317 169.171 105.172C169.229 105.143 169.316 105.143 169.373 105.23C169.402 105.288 169.402 105.375 169.316 105.433C169.258 105.462 164.21 108.677 163.374 109.633C163.345 109.662 163.287 109.662 163.259 109.662Z" fill="#472938"/>
<path d="M167.037 104.101C167.037 104.101 167.008 104.101 167.037 104.101C166.951 104.101 166.893 104.043 166.893 103.956C166.893 103.869 167.239 96.164 167.152 94.7736C167.066 93.4701 166.662 93.0935 166.662 93.0935C166.604 93.0356 166.604 92.9487 166.633 92.8908C166.691 92.8328 166.777 92.8328 166.835 92.8618C166.893 92.8908 167.325 93.3253 167.412 94.7446C167.499 96.164 167.152 103.666 167.152 103.985C167.152 104.043 167.095 104.101 167.037 104.101Z" fill="#472938"/>
<path d="M167.931 116.18C167.902 116.18 167.902 116.151 167.931 116.18C167.816 116.151 167.787 116.093 167.787 116.006C168.393 112.588 172.171 110.184 172.315 110.097C172.373 110.068 172.46 110.068 172.517 110.155C172.546 110.213 172.546 110.299 172.46 110.357C172.431 110.386 168.623 112.791 168.047 116.093C168.047 116.122 167.989 116.18 167.931 116.18Z" fill="#472938"/>
<path d="M195.274 367.78C195.39 368.389 196.745 370.387 203.581 370.996C210.417 371.604 218.781 369.113 222.906 368.649C226.367 368.273 230.78 366.969 232.107 366.535C232.337 366.477 232.51 366.245 232.51 365.984C232.51 365.579 232.482 364.913 232.453 364.102C226.857 364.188 218.954 366.274 209.465 367.578C202.312 368.562 197.495 366.68 195.39 365.55C195.274 366.303 195.245 367.027 195.274 367.78Z" fill="#3B2645"/>
<path d="M231.587 350.777C229.078 351.009 228.04 353.094 226.828 353.789C225.617 354.485 222.04 354.774 222.358 350.227C222.675 345.679 219.185 344.317 219.185 344.317C218.233 344.346 215.666 349.444 211.311 354.948C206.956 360.452 196.514 363.348 196.053 363.522C195.793 363.609 195.592 364.565 195.447 365.55C197.553 366.65 202.37 368.562 209.523 367.577C218.983 366.274 226.915 364.188 232.51 364.101C232.424 361.118 232.251 356.02 231.962 353.847C231.789 353.007 231.703 351.907 231.587 350.777Z" fill="#AB8DA8"/>
<path d="M222.358 350.256C222.069 354.803 225.617 354.514 226.828 353.819C228.04 353.123 229.107 351.038 231.587 350.806C231.357 347.881 231.184 344.752 231.184 344.752L219.156 344.347C219.185 344.347 222.646 345.737 222.358 350.256Z" fill="#FFEDE5"/>
<path d="M209.148 361.495C214.801 360.973 222.358 351.241 222.358 351.241C222.329 350.922 222.329 350.574 222.358 350.256C222.646 345.708 219.185 344.347 219.185 344.347C218.233 344.376 215.666 349.474 211.311 354.977C209.638 357.121 207.013 358.859 204.446 360.191C205.773 361.234 207.446 361.697 209.148 361.495Z" fill="#3B2645"/>
<path d="M175.084 366.042C175.575 367.577 178.718 368.128 185.67 368.128C192.621 368.128 195.938 355.73 198.764 353.21C201.591 350.719 207.446 342.145 207.446 340.668C207.446 340.233 206.581 339.162 205.34 337.829C204.1 340.494 201.331 345.853 197.264 349.705C193.89 352.921 193.746 363.725 185.352 365.724C181.43 366.651 177.767 365.608 174.998 364.246C174.882 364.855 174.94 365.463 175.084 366.042Z" fill="#3B2645"/>
<path d="M196.745 329.516C193.774 332.702 194.726 336.583 194.582 338.148C194.438 339.712 189.102 340.117 188.265 339.77C187.429 339.422 186.535 338.119 184.862 338.148C183.852 338.177 182.929 338.669 182.381 339.509C181.949 345.042 181.17 351.617 180.824 354.224C180.247 358.54 177.767 359.641 176.526 360.509C175.661 361.089 175.084 362.798 174.969 364.275C177.738 365.637 181.401 366.679 185.323 365.752C193.746 363.783 193.861 352.949 197.236 349.734C201.302 345.882 204.071 340.552 205.312 337.858C202.312 334.614 197.12 329.95 196.745 329.516Z" fill="#AB8DA8"/>
<path d="M184.833 338.119C186.535 338.09 187.4 339.393 188.237 339.741C189.073 340.089 194.409 339.683 194.553 338.119C194.697 336.555 193.746 332.673 196.716 329.487C196.197 328.85 194.409 325.519 194.409 325.519L182.555 331.399C182.756 332.789 182.612 335.917 182.324 339.48C182.901 338.64 183.852 338.148 184.833 338.119Z" fill="#FFEDE5"/>
<path d="M183.564 357.584C187.775 356.049 188.237 339.741 188.237 339.741C187.4 339.393 186.506 338.09 184.833 338.119C183.824 338.148 182.901 338.64 182.353 339.48C181.92 345.013 181.141 351.588 180.795 354.195C180.651 355.527 180.189 356.802 179.468 357.932C180.853 358.163 182.266 358.019 183.564 357.584Z" fill="#3B2645"/>
<path d="M233.347 177.27C233.347 177.27 248.576 203.165 248.576 216.287C248.576 229.409 235.481 273.293 235.25 279.202C235.02 285.111 239.663 298.03 238.192 311.065C236.721 324.099 231.184 344.723 231.184 344.723C231.184 344.723 223.742 345.853 219.156 344.318C219.156 344.318 218.954 305.561 216.243 289.717C213.532 273.872 211.426 240.3 211.426 240.3C211.426 240.3 183.593 270.512 182.699 275.523C181.805 280.534 186.91 283.836 189.333 298.957C191.755 314.077 194.438 325.548 194.438 325.548C194.438 325.548 188.958 332.036 182.583 331.428C182.583 331.428 158.846 277.753 160.201 270.744C161.557 263.734 189.015 212.116 190.025 206.004C191.034 199.892 191.755 192.129 193.024 184.164L233.347 177.27Z" fill="#AB8DA8"/>
<path d="M214.484 194.678C224.117 193.056 231.761 187.263 236.404 182.802C234.616 179.442 233.347 177.298 233.347 177.298L192.996 184.163C192.707 185.959 192.448 187.755 192.217 189.522C195.938 192.361 203.494 196.532 214.484 194.678Z" fill="#3B2645"/>
<g opacity="0.5">
<path opacity="0.5" d="M211.455 240.3V228.134C211.455 228.134 207.821 220.893 207.475 214.839L208.311 232.682L200.408 252.64L211.455 240.3Z" fill="#543753"/>
</g>
<path d="M193.025 167.769C193.861 171.911 193.025 184.164 193.025 184.164C193.025 184.164 195.044 188.711 205.888 190.507C216.733 192.303 233.347 177.27 233.347 177.27C231.789 173.736 231.53 169.681 231.645 166.552C207.446 162.816 193.025 167.769 193.025 167.769Z" fill="#FFEDE5"/>
<path d="M232.28 174.025C231.732 171.563 231.53 169.072 231.645 166.552C228.732 166.089 225.963 165.77 223.338 165.538L224.002 171.39L232.28 174.025Z" fill="#DE835C"/>
<path d="M207.158 137.093C222.444 135.703 227.088 122.639 228.472 115.34L224.377 114.181L204.417 112.154L198.562 113.66C195.476 124.348 193.861 138.281 207.158 137.093Z" fill="#FFEDE5"/>
<path d="M239.952 118.497L233.837 116.817C229.972 150.244 237.241 149.346 237.241 149.346L239.26 144.045L239.952 118.497Z" fill="#FFEDE5"/>
<path d="M232.164 161.512C237.327 156.877 237.241 149.346 237.241 149.346C237.241 149.346 229.943 150.244 233.837 116.817L228.472 115.34C227.059 122.639 222.415 135.732 207.158 137.093C193.861 138.281 195.476 124.348 198.591 113.689L192.563 115.253C192.563 115.253 185.554 138.223 185.352 146.536C185.208 151.866 188.381 159.079 190.717 163.569C206.379 156.877 232.164 161.512 232.164 161.512Z" fill="#AB8DA8"/>
<path d="M231.645 166.552C231.703 164.843 231.876 163.163 232.193 161.483C232.193 161.483 206.408 156.848 190.717 163.539C192.015 166.06 193.025 167.74 193.025 167.74C193.025 167.74 207.446 162.815 231.645 166.552Z" fill="#3B2645"/>
<path d="M233.837 116.788C233.837 116.788 236.664 132.604 226.28 151.2L225.098 163.829L226.107 192.651C226.107 192.651 221.492 193.896 219.041 193.896C216.589 193.896 213.157 195.026 213.157 195.026L212.666 190.362L210.071 190.42C210.071 190.42 209.321 180.948 212.551 173.185C215.782 165.422 217.339 160.73 217.858 152.735C218.377 144.741 216.589 134.023 222.502 117.715L233.837 116.788Z" fill="white"/>
<path d="M239.288 144.045L237.558 137.47L237.27 149.317L239.288 144.045Z" fill="#DE835C"/>
<path d="M205.831 188.74C206.133 188.74 206.379 188.364 206.379 187.9C206.379 187.436 206.133 187.06 205.831 187.06C205.528 187.06 205.283 187.436 205.283 187.9C205.283 188.364 205.528 188.74 205.831 188.74Z" fill="#DE835C"/>
<path d="M205.398 103.058C205.398 103.058 205.513 114.992 199.11 130.866C192.707 146.739 192.188 152.33 193.688 167.74C195.188 183.15 191.496 195.46 191.496 195.46C191.496 195.46 174.421 199.023 167.643 189.783C167.643 189.783 176.007 170.434 179.757 147.318C183.506 124.203 192.563 115.195 192.563 115.195C192.563 115.195 194.294 110.213 198.216 110.734C198.216 110.792 201.389 102.855 205.398 103.058Z" fill="white"/>
<path d="M184.054 180.137C183.968 180.137 183.91 180.079 183.91 179.992C182.756 158.441 188.987 138.86 192.332 128.345L192.563 127.65C192.592 127.563 192.678 127.534 192.736 127.563C192.823 127.592 192.851 127.679 192.823 127.737L192.592 128.432C189.246 138.947 183.045 158.47 184.199 179.963C184.199 180.079 184.141 180.137 184.054 180.137Z" fill="#472938"/>
<path d="M194.063 123.334H194.034C193.947 123.305 193.919 123.219 193.947 123.161C196.341 114.905 198.072 110.792 198.101 110.763C198.13 110.676 198.216 110.647 198.303 110.676C198.389 110.705 198.418 110.792 198.389 110.879C198.36 110.908 196.63 115.021 194.265 123.247C194.178 123.276 194.121 123.334 194.063 123.334Z" fill="#472938"/>
<path d="M183.564 141.149H183.535C183.449 141.12 183.42 141.062 183.42 140.975C185.929 131.213 192.361 115.369 192.419 115.195C192.448 115.108 192.534 115.079 192.621 115.108C192.707 115.137 192.736 115.224 192.707 115.311C192.65 115.456 186.218 131.3 183.708 141.033C183.708 141.091 183.651 141.149 183.564 141.149Z" fill="#472938"/>
<path d="M212.695 190.536C212.609 190.536 212.551 190.478 212.551 190.391C212.551 190.305 212.493 180.63 214.368 176.14C214.397 176.053 214.484 176.024 214.57 176.053C214.657 176.082 214.686 176.169 214.657 176.256C212.811 180.688 212.868 190.305 212.868 190.391C212.84 190.478 212.782 190.536 212.695 190.536Z" fill="#472938"/>
<path d="M215.695 188.885C215.608 188.885 215.551 188.827 215.551 188.74C215.551 188.653 215.234 180.572 216.964 174.489C218.695 168.464 219.156 158.181 219.156 158.094C219.156 158.007 219.214 157.949 219.3 157.949C219.387 157.949 219.445 158.007 219.445 158.094C219.445 158.21 218.983 168.493 217.253 174.576C215.522 180.601 215.839 188.653 215.839 188.711C215.839 188.798 215.782 188.885 215.695 188.885Z" fill="#472938"/>
<path d="M221.579 175.908C221.55 175.908 221.55 175.908 221.579 175.908C221.464 175.879 221.435 175.821 221.435 175.734C222.56 169.825 221.665 157.659 221.665 157.514C221.665 157.428 221.723 157.37 221.81 157.37C221.896 157.37 221.954 157.428 221.954 157.514C221.954 157.63 222.848 169.854 221.723 175.792C221.694 175.85 221.637 175.908 221.579 175.908Z" fill="#472938"/>
<path d="M223.713 152.561C223.598 152.532 223.569 152.474 223.569 152.388C223.598 152.272 225.386 141.207 227.117 136.109C227.146 136.022 227.232 135.993 227.29 136.022C227.376 136.051 227.405 136.137 227.376 136.195C225.675 141.264 223.858 152.301 223.858 152.416C223.858 152.503 223.8 152.561 223.713 152.561Z" fill="#472938"/>
<path d="M221.579 151.345C221.521 151.345 221.464 151.287 221.435 151.229C221.435 151.171 220.483 146.276 221.723 137.441C221.723 137.354 221.81 137.296 221.896 137.325C221.983 137.325 222.04 137.412 222.012 137.499C220.8 146.305 221.723 151.142 221.723 151.2C221.723 151.258 221.666 151.345 221.579 151.345Z" fill="#472938"/>
<path d="M224.204 93.8467L224.377 114.181H204.216L206.148 96.0481L224.204 93.8467Z" fill="#FFEDE5"/>
<path d="M206.148 96.0481C206.148 96.0481 209.09 115.311 224.29 104.014L224.204 93.8467L206.148 96.0481Z" fill="#DE835C"/>
<path d="M202.905 92.9603C204.208 92.588 204.662 90.1657 203.921 87.55C203.18 84.9343 201.523 83.1157 200.22 83.488C198.918 83.8603 198.464 86.2826 199.205 88.8983C199.946 91.514 201.603 93.3326 202.905 92.9603Z" fill="#DE835C"/>
<path d="M224.233 95.7584C224.233 95.7584 224.175 100.712 223.944 104.014C223.944 104.014 221.579 111.516 222.646 118.497C223.713 125.478 223.367 130.634 221.694 133.125L223.569 132.227C223.569 132.227 233.174 132.343 233.058 118.294C233.058 118.294 237.904 110.415 230.636 101.175C223.367 91.9349 227.463 86.8948 227.463 86.8948C227.463 86.8948 224.463 88.401 224.233 95.7584Z" fill="#3B2645"/>
<path d="M227.405 86.8657C227.405 86.8657 224.463 88.4009 224.204 95.7584C224.204 95.7584 224.146 100.712 223.915 104.014C225.069 100.943 226.05 97.815 226.857 94.6287C225.213 89.5596 227.405 86.8657 227.405 86.8657Z" fill="#3B2645"/>
<path d="M228.614 88.4657C229.396 85.8622 228.98 83.4331 227.684 83.0402C226.388 82.6472 224.702 84.4391 223.92 87.0426C223.137 89.6461 223.554 92.0752 224.85 92.4681C226.146 92.8611 227.831 91.0692 228.614 88.4657Z" fill="#FFEDE5"/>
<path d="M201.245 74.0047C201.245 74.0047 200.726 89.0672 202.716 95.3818C204.706 101.696 209.667 105.694 212.926 105.694C216.185 105.694 222.531 103.319 225.011 93.1804C227.492 83.0422 227.203 70.326 216.56 66.9949C205.917 63.6638 201.245 70.6447 201.245 74.0047Z" fill="#FFEDE5"/>
<path d="M226.223 84.8961C226.223 84.8961 225.646 80.8119 223.454 78.5815C221.262 76.3511 216.762 74.8448 217.599 71.282C217.599 71.282 214.714 72.991 209.523 72.991C204.331 72.991 200.754 77.0463 201.274 83.9402L200.61 83.4768C200.61 83.4768 198.13 73.6862 201.158 68.9357C204.216 64.1853 211.426 61.1728 217.253 62.8238C223.079 64.4749 229.626 68.3854 229.049 76.0324C228.876 78.4656 228.53 80.8698 228.011 83.245C228.011 83.2161 226.338 83.4768 226.223 84.8961Z" fill="#3B2645"/>
<path d="M205.888 86.0838C205.427 86.0838 205.052 85.7362 205.023 85.2727L204.994 84.7513C204.994 84.2879 205.34 83.9113 205.802 83.8823C206.263 83.8823 206.638 84.2299 206.667 84.6934L206.696 85.2148C206.696 85.6782 206.35 86.0838 205.888 86.0838Z" fill="#472938"/>
<path d="M218.781 86.5183C218.32 86.4604 218.002 86.0259 218.089 85.5624L218.176 85.041C218.233 84.5776 218.666 84.2589 219.127 84.3458C219.589 84.4038 219.906 84.8383 219.82 85.3017L219.733 85.8231C219.647 86.2866 219.214 86.5763 218.781 86.5183Z" fill="#472938"/>
<path d="M202.889 82.5499C202.889 82.5499 203.668 81.6809 205.485 81.6519C207.302 81.623 207.879 81.7968 207.994 81.2174C208.109 80.6381 204.216 79.1608 202.889 82.5499Z" fill="#472938"/>
<path d="M221.839 82.2892C221.839 82.2892 220.973 81.4781 219.012 81.565C217.051 81.6519 216.474 81.8547 216.33 81.3043C216.185 80.7539 220.31 78.987 221.839 82.2892Z" fill="#472938"/>
<path d="M216.705 95.0922L209.09 94.8315C209.09 94.8315 209.494 100.074 212.897 99.9875C216.301 99.9006 216.705 95.0922 216.705 95.0922Z" fill="white"/>
<path d="M212.436 92.8039C211.945 92.8039 211.484 92.6881 211.109 92.5143C210.792 92.3405 210.619 92.1088 210.532 91.8481C210.359 91.1818 210.705 89.5597 211.109 87.5321L211.253 86.8948C211.917 83.6216 210.128 82.7237 210.042 82.6947C209.955 82.6658 209.926 82.5499 209.955 82.463C209.984 82.3761 210.1 82.3471 210.186 82.3761C210.273 82.4051 212.292 83.4189 211.571 86.9528L211.426 87.59C211.023 89.5018 210.705 91.1818 210.849 91.7612C210.907 91.935 211.023 92.0798 211.253 92.2246C211.801 92.5143 212.667 92.5722 213.474 92.3115C213.561 92.2826 213.676 92.3405 213.705 92.4274C213.734 92.5143 213.676 92.6301 213.59 92.6591C213.215 92.746 212.811 92.8039 212.436 92.8039Z" fill="#472938"/>
<path d="M239.952 118.497C239.952 118.497 245.98 118.787 248.98 127.419C251.979 136.022 261.469 161.049 261.844 165.654C262.219 170.26 260.805 173.967 254.258 175.329C248.691 176.488 233.924 172.172 232.712 172.056C231.501 171.94 228.069 171.853 226.915 169.854C225.761 167.856 225.127 164.467 225.127 164.467C225.127 164.467 222.098 163.308 221.579 163.308C221.06 163.308 217.397 163.54 217.051 162.989C216.705 162.439 216.705 161.396 216.82 160.904C216.82 160.904 216.185 159.745 216.387 159.05C216.387 159.05 215.724 157.37 215.782 156.993C215.839 156.617 217.627 155.516 218.002 155.429C218.377 155.342 222.704 155.168 222.704 155.168C222.704 155.168 221.406 153.575 221.175 153.517C220.944 153.459 217.858 153.575 217.858 153.575L217.801 154.357C217.801 154.357 216.964 153.633 216.82 153.228C216.676 152.822 216.935 151.634 217.281 151.49C217.627 151.345 221.723 149.983 222.963 150.418C224.204 150.852 228.155 153.286 228.674 154.097C229.193 154.908 232.107 163.047 233.03 163.655C233.953 164.264 238.683 164.93 246.24 163.308L235.481 135.993L239.952 118.497Z" fill="#FFEDE5"/>
</svg>
