<svg width="508" height="295" viewBox="0 0 508 295" fill="none" xmlns="http://www.w3.org/2000/svg">
<g filter="url(#filter0_d_909_3468)">
<g filter="url(#filter1_d_909_3468)">
<rect x="40" y="30" width="428" height="215" rx="20" fill="white"/>
</g>
<path d="M70.7506 217.234C70.1986 217.234 69.7026 217.138 69.2626 216.946C68.8306 216.746 68.4906 216.474 68.2426 216.13C67.9946 215.778 67.8666 215.374 67.8586 214.918H69.0226C69.0626 215.31 69.2226 215.642 69.5026 215.914C69.7906 216.178 70.2066 216.31 70.7506 216.31C71.2706 216.31 71.6786 216.182 71.9746 215.926C72.2786 215.662 72.4306 215.326 72.4306 214.918C72.4306 214.598 72.3426 214.338 72.1666 214.138C71.9906 213.938 71.7706 213.786 71.5066 213.682C71.2426 213.578 70.8866 213.466 70.4386 213.346C69.8866 213.202 69.4426 213.058 69.1066 212.914C68.7786 212.77 68.4946 212.546 68.2546 212.242C68.0226 211.93 67.9066 211.514 67.9066 210.994C67.9066 210.538 68.0226 210.134 68.2546 209.782C68.4866 209.43 68.8106 209.158 69.2266 208.966C69.6506 208.774 70.1346 208.678 70.6786 208.678C71.4626 208.678 72.1026 208.874 72.5986 209.266C73.1026 209.658 73.3866 210.178 73.4506 210.826H72.2506C72.2106 210.506 72.0426 210.226 71.7466 209.986C71.4506 209.738 71.0586 209.614 70.5706 209.614C70.1146 209.614 69.7426 209.734 69.4546 209.974C69.1666 210.206 69.0226 210.534 69.0226 210.958C69.0226 211.262 69.1066 211.51 69.2746 211.702C69.4506 211.894 69.6626 212.042 69.9106 212.146C70.1666 212.242 70.5226 212.354 70.9786 212.482C71.5306 212.634 71.9746 212.786 72.3106 212.938C72.6466 213.082 72.9346 213.31 73.1746 213.622C73.4146 213.926 73.5346 214.342 73.5346 214.87C73.5346 215.278 73.4266 215.662 73.2106 216.022C72.9946 216.382 72.6746 216.674 72.2506 216.898C71.8266 217.122 71.3266 217.234 70.7506 217.234ZM80.9736 210.574V217.15H79.8816V216.178C79.6736 216.514 79.3816 216.778 79.0056 216.97C78.6376 217.154 78.2296 217.246 77.7816 217.246C77.2696 217.246 76.8096 217.142 76.4016 216.934C75.9936 216.718 75.6696 216.398 75.4296 215.974C75.1976 215.55 75.0816 215.034 75.0816 214.426V210.574H76.1616V214.282C76.1616 214.93 76.3256 215.43 76.6536 215.782C76.9816 216.126 77.4296 216.298 77.9976 216.298C78.5816 216.298 79.0416 216.118 79.3776 215.758C79.7136 215.398 79.8816 214.874 79.8816 214.186V210.574H80.9736ZM86.0214 210.454C86.8214 210.454 87.4694 210.698 87.9654 211.186C88.4614 211.666 88.7094 212.362 88.7094 213.274V217.15H87.6294V213.43C87.6294 212.774 87.4654 212.274 87.1374 211.93C86.8094 211.578 86.3614 211.402 85.7934 211.402C85.2174 211.402 84.7574 211.582 84.4134 211.942C84.0774 212.302 83.9094 212.826 83.9094 213.514V217.15H82.8174V210.574H83.9094V211.51C84.1254 211.174 84.4174 210.914 84.7854 210.73C85.1614 210.546 85.5734 210.454 86.0214 210.454Z" fill="#7B6F72"/>
<path d="M130.932 208.846V217.15H129.84V210.958L127.08 217.15H126.312L123.54 210.946V217.15H122.448V208.846H123.624L126.696 215.71L129.768 208.846H130.932ZM135.652 217.258C135.036 217.258 134.476 217.118 133.972 216.838C133.476 216.558 133.084 216.162 132.796 215.65C132.516 215.13 132.376 214.53 132.376 213.85C132.376 213.178 132.52 212.586 132.808 212.074C133.104 211.554 133.504 211.158 134.008 210.886C134.512 210.606 135.076 210.466 135.7 210.466C136.324 210.466 136.888 210.606 137.392 210.886C137.896 211.158 138.292 211.55 138.58 212.062C138.876 212.574 139.024 213.17 139.024 213.85C139.024 214.53 138.872 215.13 138.568 215.65C138.272 216.162 137.868 216.558 137.356 216.838C136.844 217.118 136.276 217.258 135.652 217.258ZM135.652 216.298C136.044 216.298 136.412 216.206 136.756 216.022C137.1 215.838 137.376 215.562 137.584 215.194C137.8 214.826 137.908 214.378 137.908 213.85C137.908 213.322 137.804 212.874 137.596 212.506C137.388 212.138 137.116 211.866 136.78 211.69C136.444 211.506 136.08 211.414 135.688 211.414C135.288 211.414 134.92 211.506 134.584 211.69C134.256 211.866 133.992 212.138 133.792 212.506C133.592 212.874 133.492 213.322 133.492 213.85C133.492 214.386 133.588 214.838 133.78 215.206C133.98 215.574 134.244 215.85 134.572 216.034C134.9 216.21 135.26 216.298 135.652 216.298ZM143.664 210.454C144.464 210.454 145.112 210.698 145.608 211.186C146.104 211.666 146.352 212.362 146.352 213.274V217.15H145.272V213.43C145.272 212.774 145.108 212.274 144.78 211.93C144.452 211.578 144.004 211.402 143.436 211.402C142.86 211.402 142.4 211.582 142.056 211.942C141.72 212.302 141.552 212.826 141.552 213.514V217.15H140.46V210.574H141.552V211.51C141.768 211.174 142.06 210.914 142.428 210.73C142.804 210.546 143.216 210.454 143.664 210.454Z" fill="#7B6F72"/>
<path d="M190.575 208.786V209.674H188.295V217.15H187.203V209.674H184.911V208.786H190.575ZM197.751 210.574V217.15H196.659V216.178C196.451 216.514 196.159 216.778 195.783 216.97C195.415 217.154 195.007 217.246 194.559 217.246C194.047 217.246 193.587 217.142 193.179 216.934C192.771 216.718 192.447 216.398 192.207 215.974C191.975 215.55 191.859 215.034 191.859 214.426V210.574H192.939V214.282C192.939 214.93 193.103 215.43 193.431 215.782C193.759 216.126 194.207 216.298 194.775 216.298C195.359 216.298 195.819 216.118 196.155 215.758C196.491 215.398 196.659 214.874 196.659 214.186V210.574H197.751ZM205.595 213.61C205.595 213.818 205.583 214.038 205.559 214.27H200.303C200.343 214.918 200.563 215.426 200.963 215.794C201.371 216.154 201.863 216.334 202.439 216.334C202.911 216.334 203.303 216.226 203.615 216.01C203.935 215.786 204.159 215.49 204.287 215.122H205.463C205.287 215.754 204.935 216.27 204.407 216.67C203.879 217.062 203.223 217.258 202.439 217.258C201.815 217.258 201.255 217.118 200.759 216.838C200.271 216.558 199.887 216.162 199.607 215.65C199.327 215.13 199.187 214.53 199.187 213.85C199.187 213.17 199.323 212.574 199.595 212.062C199.867 211.55 200.247 211.158 200.735 210.886C201.231 210.606 201.799 210.466 202.439 210.466C203.063 210.466 203.615 210.602 204.095 210.874C204.575 211.146 204.943 211.522 205.199 212.002C205.463 212.474 205.595 213.01 205.595 213.61ZM204.467 213.382C204.467 212.966 204.375 212.61 204.191 212.314C204.007 212.01 203.755 211.782 203.435 211.63C203.123 211.47 202.775 211.39 202.391 211.39C201.839 211.39 201.367 211.566 200.975 211.918C200.591 212.27 200.371 212.758 200.315 213.382H204.467Z" fill="#7B6F72"/>
<path d="M252.464 208.786L250.04 217.15H248.816L246.872 210.418L244.856 217.15L243.644 217.162L241.304 208.786H242.468L244.292 215.878L246.308 208.786H247.532L249.452 215.854L251.288 208.786H252.464ZM259.659 213.61C259.659 213.818 259.647 214.038 259.623 214.27H254.367C254.407 214.918 254.627 215.426 255.027 215.794C255.435 216.154 255.927 216.334 256.503 216.334C256.975 216.334 257.367 216.226 257.679 216.01C257.999 215.786 258.223 215.49 258.351 215.122H259.527C259.351 215.754 258.999 216.27 258.471 216.67C257.943 217.062 257.287 217.258 256.503 217.258C255.879 217.258 255.319 217.118 254.823 216.838C254.335 216.558 253.951 216.162 253.671 215.65C253.391 215.13 253.251 214.53 253.251 213.85C253.251 213.17 253.387 212.574 253.659 212.062C253.931 211.55 254.311 211.158 254.799 210.886C255.295 210.606 255.863 210.466 256.503 210.466C257.127 210.466 257.679 210.602 258.159 210.874C258.639 211.146 259.007 211.522 259.263 212.002C259.527 212.474 259.659 213.01 259.659 213.61ZM258.531 213.382C258.531 212.966 258.439 212.61 258.255 212.314C258.071 212.01 257.819 211.782 257.499 211.63C257.187 211.47 256.839 211.39 256.455 211.39C255.903 211.39 255.431 211.566 255.039 211.918C254.655 212.27 254.435 212.758 254.379 213.382H258.531ZM260.693 213.838C260.693 213.166 260.829 212.578 261.101 212.074C261.373 211.562 261.745 211.166 262.217 210.886C262.697 210.606 263.233 210.466 263.825 210.466C264.337 210.466 264.813 210.586 265.253 210.826C265.693 211.058 266.029 211.366 266.261 211.75V208.27H267.365V217.15H266.261V215.914C266.045 216.306 265.725 216.63 265.301 216.886C264.877 217.134 264.381 217.258 263.813 217.258C263.229 217.258 262.697 217.114 262.217 216.826C261.745 216.538 261.373 216.134 261.101 215.614C260.829 215.094 260.693 214.502 260.693 213.838ZM266.261 213.85C266.261 213.354 266.161 212.922 265.961 212.554C265.761 212.186 265.489 211.906 265.145 211.714C264.809 211.514 264.437 211.414 264.029 211.414C263.621 211.414 263.249 211.51 262.913 211.702C262.577 211.894 262.309 212.174 262.109 212.542C261.909 212.91 261.809 213.342 261.809 213.838C261.809 214.342 261.909 214.782 262.109 215.158C262.309 215.526 262.577 215.81 262.913 216.01C263.249 216.202 263.621 216.298 264.029 216.298C264.437 216.298 264.809 216.202 265.145 216.01C265.489 215.81 265.761 215.526 265.961 215.158C266.161 214.782 266.261 214.346 266.261 213.85Z" fill="#7B6F72"/>
<path d="M305.95 208.786V209.674H303.67V217.15H302.578V209.674H300.286V208.786H305.95ZM310.558 210.454C311.054 210.454 311.502 210.562 311.902 210.778C312.302 210.986 312.614 211.302 312.838 211.726C313.07 212.15 313.186 212.666 313.186 213.274V217.15H312.106V213.43C312.106 212.774 311.942 212.274 311.614 211.93C311.286 211.578 310.838 211.402 310.27 211.402C309.694 211.402 309.234 211.582 308.89 211.942C308.554 212.302 308.386 212.826 308.386 213.514V217.15H307.294V208.27H308.386V211.51C308.602 211.174 308.898 210.914 309.274 210.73C309.658 210.546 310.086 210.454 310.558 210.454ZM320.802 210.574V217.15H319.71V216.178C319.502 216.514 319.21 216.778 318.834 216.97C318.466 217.154 318.058 217.246 317.61 217.246C317.098 217.246 316.638 217.142 316.23 216.934C315.822 216.718 315.498 216.398 315.258 215.974C315.026 215.55 314.91 215.034 314.91 214.426V210.574H315.99V214.282C315.99 214.93 316.154 215.43 316.482 215.782C316.81 216.126 317.258 216.298 317.826 216.298C318.41 216.298 318.87 216.118 319.206 215.758C319.542 215.398 319.71 214.874 319.71 214.186V210.574H320.802Z" fill="#7B6F72"/>
<path d="M367.215 208.786V209.674H363.579V212.494H366.531V213.382H363.579V217.15H362.487V208.786H367.215ZM369.626 211.642C369.818 211.266 370.09 210.974 370.442 210.766C370.802 210.558 371.238 210.454 371.75 210.454V211.582H371.462C370.238 211.582 369.626 212.246 369.626 213.574V217.15H368.534V210.574H369.626V211.642ZM373.575 209.506C373.367 209.506 373.191 209.434 373.047 209.29C372.903 209.146 372.831 208.97 372.831 208.762C372.831 208.554 372.903 208.378 373.047 208.234C373.191 208.09 373.367 208.018 373.575 208.018C373.775 208.018 373.943 208.09 374.079 208.234C374.223 208.378 374.295 208.554 374.295 208.762C374.295 208.97 374.223 209.146 374.079 209.29C373.943 209.434 373.775 209.506 373.575 209.506ZM374.103 210.574V217.15H373.011V210.574H374.103Z" fill="#7B6F72"/>
<path d="M419.106 217.234C418.554 217.234 418.058 217.138 417.618 216.946C417.186 216.746 416.846 216.474 416.598 216.13C416.35 215.778 416.222 215.374 416.214 214.918H417.378C417.418 215.31 417.578 215.642 417.858 215.914C418.146 216.178 418.562 216.31 419.106 216.31C419.626 216.31 420.034 216.182 420.33 215.926C420.634 215.662 420.786 215.326 420.786 214.918C420.786 214.598 420.698 214.338 420.522 214.138C420.346 213.938 420.126 213.786 419.862 213.682C419.598 213.578 419.242 213.466 418.794 213.346C418.242 213.202 417.798 213.058 417.462 212.914C417.134 212.77 416.85 212.546 416.61 212.242C416.378 211.93 416.262 211.514 416.262 210.994C416.262 210.538 416.378 210.134 416.61 209.782C416.842 209.43 417.166 209.158 417.582 208.966C418.006 208.774 418.49 208.678 419.034 208.678C419.818 208.678 420.458 208.874 420.954 209.266C421.458 209.658 421.742 210.178 421.806 210.826H420.606C420.566 210.506 420.398 210.226 420.102 209.986C419.806 209.738 419.414 209.614 418.926 209.614C418.47 209.614 418.098 209.734 417.81 209.974C417.522 210.206 417.378 210.534 417.378 210.958C417.378 211.262 417.462 211.51 417.63 211.702C417.806 211.894 418.018 212.042 418.266 212.146C418.522 212.242 418.878 212.354 419.334 212.482C419.886 212.634 420.33 212.786 420.666 212.938C421.002 213.082 421.29 213.31 421.53 213.622C421.77 213.926 421.89 214.342 421.89 214.87C421.89 215.278 421.782 215.662 421.566 216.022C421.35 216.382 421.03 216.674 420.606 216.898C420.182 217.122 419.682 217.234 419.106 217.234ZM423.089 213.838C423.089 213.166 423.225 212.578 423.497 212.074C423.769 211.562 424.141 211.166 424.613 210.886C425.093 210.606 425.625 210.466 426.209 210.466C426.785 210.466 427.285 210.59 427.709 210.838C428.133 211.086 428.449 211.398 428.657 211.774V210.574H429.761V217.15H428.657V215.926C428.441 216.31 428.117 216.63 427.685 216.886C427.261 217.134 426.765 217.258 426.197 217.258C425.613 217.258 425.085 217.114 424.613 216.826C424.141 216.538 423.769 216.134 423.497 215.614C423.225 215.094 423.089 214.502 423.089 213.838ZM428.657 213.85C428.657 213.354 428.557 212.922 428.357 212.554C428.157 212.186 427.885 211.906 427.541 211.714C427.205 211.514 426.833 211.414 426.425 211.414C426.017 211.414 425.645 211.51 425.309 211.702C424.973 211.894 424.705 212.174 424.505 212.542C424.305 212.91 424.205 213.342 424.205 213.838C424.205 214.342 424.305 214.782 424.505 215.158C424.705 215.526 424.973 215.81 425.309 216.01C425.645 216.202 426.017 216.298 426.425 216.298C426.833 216.298 427.205 216.202 427.541 216.01C427.885 215.81 428.157 215.526 428.357 215.158C428.557 214.782 428.657 214.346 428.657 213.85ZM432.939 211.474V215.35C432.939 215.67 433.007 215.898 433.143 216.034C433.279 216.162 433.515 216.226 433.851 216.226H434.655V217.15H433.671C433.063 217.15 432.607 217.01 432.303 216.73C431.999 216.45 431.847 215.99 431.847 215.35V211.474H430.995V210.574H431.847V208.918H432.939V210.574H434.655V211.474H432.939Z" fill="#7B6F72"/>
<rect x="67.1746" y="51.5" width="29.8921" height="145.125" rx="14.946" fill="#F7F8F8"/>
<rect x="67.1746" y="154.7" width="29.8921" height="41.925" rx="14.946" fill="url(#paint0_linear_909_3468)"/>
<rect x="124.241" y="51.5" width="29.8921" height="145.125" rx="14.946" fill="#F7F8F8"/>
<rect x="124.241" y="91.2749" width="29.8921" height="105.35" rx="14.946" fill="url(#paint1_linear_909_3468)"/>
<rect x="181.308" y="51.5" width="29.8921" height="145.125" rx="14.946" fill="#F7F8F8"/>
<rect x="181.308" y="127.825" width="29.8921" height="68.8" rx="14.946" fill="url(#paint2_linear_909_3468)"/>
<rect x="238.375" y="51.5" width="31.2508" height="145.125" rx="15.6254" fill="#F7F8F8"/>
<rect x="238.375" y="105.25" width="31.2508" height="91.375" rx="15.6254" fill="url(#paint3_linear_909_3468)"/>
<rect x="296.8" y="51.5" width="29.8921" height="145.125" rx="14.946" fill="#F7F8F8"/>
<rect x="296.8" y="80.5249" width="29.8921" height="116.1" rx="14.946" fill="url(#paint4_linear_909_3468)"/>
<rect x="353.867" y="51.5" width="29.8921" height="145.125" rx="14.946" fill="#F7F8F8"/>
<rect x="353.867" y="154.7" width="29.8921" height="41.925" rx="14.946" fill="url(#paint5_linear_909_3468)"/>
<rect x="410.933" y="51.5" width="29.8921" height="145.125" rx="14.946" fill="#F7F8F8"/>
<rect x="410.933" y="103.1" width="29.8921" height="93.525" rx="14.946" fill="url(#paint6_linear_909_3468)"/>
</g>
<defs>
<filter id="filter0_d_909_3468" x="21" y="14" width="468" height="255" filterUnits="userSpaceOnUse" color-interpolation-filters="sRGB">
<feFlood flood-opacity="0" result="BackgroundImageFix"/>
<feColorMatrix in="SourceAlpha" type="matrix" values="0 0 0 0 0 0 0 0 0 0 0 0 0 0 0 0 0 0 127 0" result="hardAlpha"/>
<feOffset dx="1" dy="4"/>
<feGaussianBlur stdDeviation="10"/>
<feComposite in2="hardAlpha" operator="out"/>
<feColorMatrix type="matrix" values="0 0 0 0 0 0 0 0 0 0 0 0 0 0 0 0 0 0 0.25 0"/>
<feBlend mode="normal" in2="BackgroundImageFix" result="effect1_dropShadow_909_3468"/>
<feBlend mode="normal" in="SourceGraphic" in2="effect1_dropShadow_909_3468" result="shape"/>
</filter>
<filter id="filter1_d_909_3468" x="0" y="0" width="508" height="295" filterUnits="userSpaceOnUse" color-interpolation-filters="sRGB">
<feFlood flood-opacity="0" result="BackgroundImageFix"/>
<feColorMatrix in="SourceAlpha" type="matrix" values="0 0 0 0 0 0 0 0 0 0 0 0 0 0 0 0 0 0 127 0" result="hardAlpha"/>
<feOffset dy="10"/>
<feGaussianBlur stdDeviation="20"/>
<feColorMatrix type="matrix" values="0 0 0 0 0.113725 0 0 0 0 0.0862745 0 0 0 0 0.0901961 0 0 0 0.07 0"/>
<feBlend mode="normal" in2="BackgroundImageFix" result="effect1_dropShadow_909_3468"/>
<feBlend mode="normal" in="SourceGraphic" in2="effect1_dropShadow_909_3468" result="shape"/>
</filter>
<linearGradient id="paint0_linear_909_3468" x1="97.0667" y1="196.625" x2="57.1098" y2="194.421" gradientUnits="userSpaceOnUse">
<stop stop-color="#92A3FD"/>
<stop offset="1" stop-color="#9DCEFF"/>
</linearGradient>
<linearGradient id="paint1_linear_909_3468" x1="154.133" y1="196.625" x2="114.074" y2="195.745" gradientUnits="userSpaceOnUse">
<stop stop-color="#C58BF2"/>
<stop offset="1" stop-color="#EEA4CE"/>
</linearGradient>
<linearGradient id="paint2_linear_909_3468" x1="211.2" y1="196.625" x2="171.167" y2="195.279" gradientUnits="userSpaceOnUse">
<stop stop-color="#92A3FD"/>
<stop offset="1" stop-color="#9DCEFF"/>
</linearGradient>
<linearGradient id="paint3_linear_909_3468" x1="269.625" y1="196.625" x2="227.754" y2="195.517" gradientUnits="userSpaceOnUse">
<stop stop-color="#C58BF2"/>
<stop offset="1" stop-color="#EEA4CE"/>
</linearGradient>
<linearGradient id="paint4_linear_909_3468" x1="326.692" y1="196.625" x2="286.629" y2="195.827" gradientUnits="userSpaceOnUse">
<stop stop-color="#92A3FD"/>
<stop offset="1" stop-color="#9DCEFF"/>
</linearGradient>
<linearGradient id="paint5_linear_909_3468" x1="383.759" y1="196.625" x2="343.802" y2="194.421" gradientUnits="userSpaceOnUse">
<stop stop-color="#C58BF2"/>
<stop offset="1" stop-color="#EEA4CE"/>
</linearGradient>
<linearGradient id="paint6_linear_909_3468" x1="440.825" y1="196.625" x2="400.771" y2="195.634" gradientUnits="userSpaceOnUse">
<stop stop-color="#92A3FD"/>
<stop offset="1" stop-color="#9DCEFF"/>
</linearGradient>
</defs>
</svg>
