<svg width="689" height="657" viewBox="0 0 689 657" fill="none" xmlns="http://www.w3.org/2000/svg">
<path d="M328.734 632.734C509.932 632.734 657.534 575.414 686.655 415.504C715.776 255.595 463.944 330.063 468.626 185.083C473.307 40.1635 417.819 -44.0783 265.879 23.9147C113.94 91.9078 136.934 235.089 114.491 301.523C70.8438 430.434 -169.767 632.734 328.734 632.734Z" fill="#98BFFD"/>
<path d="M95.8315 315.318C111.771 276.781 109.7 240.837 91.207 235.035C72.7135 229.233 44.8002 255.77 28.8608 294.307C12.9214 332.845 14.9919 368.789 33.4854 374.591C51.9788 380.393 79.8921 353.856 95.8315 315.318Z" fill="#98BFFD"/>
<path d="M625.014 238.525C648.72 220.481 645.097 183.092 616.922 155.016C588.747 126.939 546.69 118.806 522.984 136.85C499.278 154.894 502.901 192.282 531.076 220.359C559.25 248.436 601.308 256.569 625.014 238.525Z" fill="#98BFFD"/>
<path d="M440.193 95.5652C440.193 95.5652 417.267 95.4453 412.93 123.446C408.593 151.447 414.789 163.858 399.161 176.509C383.534 189.161 409.144 196.236 430.141 184.244C451.208 172.252 440.193 95.5652 440.193 95.5652Z" fill="#3B2645"/>
<path d="M440.193 95.5652C440.193 95.5652 419.126 105.518 418.713 133.519C418.369 158.282 425.666 177.469 414.514 189.82C419.539 188.981 424.978 187.182 430.141 184.244C451.208 172.252 440.193 95.5652 440.193 95.5652Z" fill="#3B2645"/>
<path d="M467.455 159.661L460.089 186.223L412.93 183.045C412.93 183.045 424.909 166.736 431.243 138.496L467.455 159.661Z" fill="#FFEDE5"/>
<path d="M439.504 150.547L463.187 175.19L467.455 159.661L439.504 150.547Z" fill="#DF845C"/>
<path d="M492.583 103.66C492.583 103.66 501.67 114.752 497.677 126.204C493.684 137.656 493.891 139.635 493.203 143.892C492.514 148.089 480.811 167.336 475.234 168.055C469.658 168.775 435.786 157.203 429.109 140.894C422.431 124.585 466.491 79.2567 492.583 103.66Z" fill="#FFEDE5"/>
<path d="M429.315 146.29L438.54 133.519L442.74 134.958C442.74 134.958 446.251 134.119 447.697 122.547C447.697 122.547 458.23 118.649 460.226 109.775C460.226 109.775 495.474 89.3895 498.71 120.808C498.71 120.808 504.011 106.418 488.108 96.6445C472.205 86.8713 452.171 84.0532 439.504 92.2675C426.837 100.482 406.665 129.022 429.315 146.29Z" fill="#3B2645"/>
<path d="M439.215 141.756C443.125 140.126 443.901 134.447 440.947 129.07C437.993 123.692 432.429 120.654 428.519 122.284C424.608 123.913 423.833 129.593 426.787 134.97C429.741 140.347 435.305 143.385 439.215 141.756Z" fill="#FFEDE5"/>
<path d="M437.783 136.757C437.577 136.757 437.37 136.697 437.232 136.517L432.826 131.241C432.62 131.001 432.689 130.581 432.964 130.401C433.24 130.222 433.721 130.282 433.928 130.521L438.334 135.798C438.54 136.038 438.472 136.457 438.196 136.637C438.059 136.697 437.921 136.757 437.783 136.757Z" fill="#472938"/>
<path d="M467.179 148.808C467.179 148.808 472.756 152.166 481.637 152.466C481.637 152.466 471.998 154.205 467.179 148.808Z" fill="#472938"/>
<path d="M481.706 146.051C480.191 146.051 478.745 145.871 477.575 145.331C477.231 145.151 477.093 144.791 477.3 144.552C477.506 144.252 477.919 144.132 478.195 144.312C481.086 145.571 486.663 144.492 487.351 143.772C487.42 143.172 486.387 140.474 485.699 138.736C485.079 137.177 484.528 135.738 484.322 134.718C483.565 131.9 486.869 128.423 487.007 128.243C487.282 128.003 487.695 127.943 487.971 128.183C488.246 128.423 488.315 128.782 488.039 129.022C487.213 129.922 485.148 132.62 485.63 134.478C485.905 135.438 486.456 136.937 487.007 138.376C488.384 141.913 488.934 143.532 488.59 144.252C488.384 144.671 487.902 144.971 486.938 145.331C485.836 145.691 483.771 146.051 481.706 146.051Z" fill="#472938"/>
<path d="M496.852 128.842C496.852 128.842 498.848 127.343 496.989 126.384C495.13 125.425 491.895 125.665 491.482 126.564C491.069 127.463 490.931 128.003 492.308 128.063C493.754 128.123 496.645 127.463 496.852 128.842Z" fill="#472938"/>
<path d="M460.226 123.866C460.226 123.866 465.665 121.408 469.589 122.427C473.513 123.446 474.408 124.885 476.336 124.466C478.264 123.986 476.542 121.288 472.274 120.268C468.006 119.249 462.085 120.808 460.226 123.866Z" fill="#472938"/>
<path d="M467.524 132.32C466.698 132.2 466.147 131.541 466.216 130.821L466.422 129.802C466.56 129.082 467.317 128.603 468.143 128.663C468.969 128.782 469.52 129.442 469.451 130.161L469.245 131.181C469.107 131.9 468.35 132.44 467.524 132.32Z" fill="#472938"/>
<path d="M490.036 134.718C489.347 134.658 488.934 134.119 489.003 133.519L489.141 132.68C489.21 132.08 489.829 131.72 490.518 131.78C491.206 131.84 491.619 132.38 491.55 132.979L491.413 133.819C491.344 134.418 490.724 134.778 490.036 134.718Z" fill="#472938"/>
<path d="M526.11 623.141C529.071 625.3 532.857 628.118 535.886 623.621C535.542 620.743 535.955 611.749 535.955 611.749L509.932 613.008L511.378 622.422C511.378 622.362 523.15 620.983 526.11 623.141Z" fill="#FFEDE5"/>
<path d="M533.889 648.383C538.089 647.064 547.176 639.09 549.035 637.411C548.416 634.773 546.97 632.135 545.042 631.835C542.22 631.475 536.23 626.439 535.886 623.561C532.788 628.117 529.07 625.299 526.11 623.081C523.15 620.922 511.377 622.301 511.377 622.301C511.377 622.301 507.522 639.509 507.109 648.443C512.961 648.803 530.034 649.642 533.889 648.383Z" fill="#3B2645"/>
<path d="M507.866 653.6C510.827 655.819 532.031 655.159 534.234 654.619C536.437 654.08 547.176 644.846 548.76 642.628C549.448 641.668 549.517 639.51 548.966 637.411C547.108 639.09 538.02 647.065 533.821 648.384C529.965 649.583 512.823 648.803 507.04 648.504C507.04 651.202 507.178 653.12 507.866 653.6Z" fill="#E5E5E5"/>
<path d="M362.674 622.901C369.352 623.681 371.004 627.098 373.07 626.919C375.135 626.739 379.885 623.141 379.885 623.141C379.885 620.503 382.914 611.749 382.914 611.749L355.445 612.528L352.485 624.4C352.554 624.4 356.065 622.122 362.674 622.901Z" fill="#FFEDE5"/>
<path d="M381.4 640.889C384.085 639.989 386.494 638.011 388.009 636.692C387.94 634.533 387.252 632.075 385.324 631.116C382.019 629.497 379.954 623.141 379.954 623.141C379.954 623.141 375.204 626.679 373.138 626.918C371.073 627.158 369.352 623.741 362.743 622.901C356.065 622.122 352.623 624.4 352.623 624.4C350.144 630.636 349.112 640.289 348.836 645.865C352.21 646.465 357.717 647.184 365.359 647.184C379.197 647.124 377.131 642.268 381.4 640.889Z" fill="#3B2645"/>
<path d="M348.767 650.002C349.112 650.962 350.144 653.6 365.565 653.6C380.986 653.6 380.505 646.945 381.537 644.786C382.639 642.568 386.769 641.189 387.458 640.109C387.733 639.63 388.009 638.251 387.94 636.692C386.494 638.011 384.016 639.989 381.331 640.889C377.062 642.268 379.197 647.184 365.221 647.184C357.579 647.184 352.072 646.465 348.699 645.865C348.63 648.144 348.63 649.763 348.767 650.002Z" fill="#E5E5E5"/>
<path d="M508.348 301.043C508.348 301.043 527.143 338.457 532.169 368.017C537.194 397.577 526.454 477.681 528.038 484.517C529.621 491.352 538.433 512.337 539.741 540.518C540.981 568.698 535.955 611.689 535.955 611.689C535.955 611.689 520.672 617.625 509.932 612.948C509.932 612.948 501.602 567.14 496.989 547.893C492.377 528.646 492.377 506.102 487.282 495.549C482.188 484.996 468.97 410.827 465.183 398.896C465.183 398.896 451.208 458.495 438.265 485.236C425.322 511.978 421.742 514.796 417.818 530.205C413.894 545.614 386.219 601.376 382.983 611.749C382.983 611.749 368.044 618.344 355.514 612.528C355.514 612.528 362.881 544.415 376.099 517.434C389.317 490.452 390.9 489.733 393.861 470.067C396.821 450.4 384.635 364.479 417.681 309.557C417.612 309.497 463.944 300.744 508.348 301.043Z" fill="#AB8DA8"/>
<path d="M465.183 303.082C468.212 314.594 508.211 366.998 508.211 366.998L484.872 301.523L465.183 303.082Z" fill="#543753"/>
<path d="M447.697 383.966C447.697 383.966 453.755 396.437 483.909 394.699C483.909 394.699 467.386 397.876 468.901 414.845L465.183 398.956L460.984 415.744C460.984 415.744 462.085 399.076 440.537 393.32L454.65 393.679C454.719 393.619 447.765 389.302 447.697 383.966Z" fill="#543753"/>
<path d="M403.086 184.903C403.086 184.903 392.897 192.278 362.95 232.331C333.002 272.383 340.713 274.542 345.601 280.417C350.42 286.293 386.701 319.391 389.386 322.389C392.071 325.446 401.984 334.56 407.285 330.903C412.586 327.245 410.865 316.752 416.786 312.795C422.706 308.778 427.663 304.761 428.145 302.602C428.627 300.444 427.388 298.645 426.837 298.645C426.286 298.645 420.297 303.142 416.648 304.701C412.999 306.26 404.463 311.656 404.325 311.656C404.187 311.656 371.762 269.085 371.762 269.085L407.836 231.611L403.086 184.903Z" fill="#FFEDE5"/>
<path d="M403.774 198.454C403.774 198.454 390.418 212.664 393.998 246.481L407.974 232.031L403.774 198.454Z" fill="#DF845C"/>
<path d="M367.011 301.223L380.573 280.537L372.243 269.505L365.015 299.364L367.011 301.223Z" fill="#DF845C"/>
<path d="M452.103 177.828C460.915 179.687 484.115 190.959 498.71 214.583C513.305 238.207 508.142 242.404 502.565 249.179L500.431 279.518L509.794 304.881L417.68 309.557C417.68 309.557 424.84 283.415 421.123 275.141C417.405 266.867 377.062 220.099 399.437 189.101C410.796 173.212 452.103 177.828 452.103 177.828Z" fill="#FFEDE5"/>
<path d="M500.432 279.458L502.566 249.119C508.142 242.404 513.374 238.147 498.71 214.523C495.131 208.767 491.069 203.73 486.8 199.354C486.043 208.587 483.84 219.62 478.677 231.072C467.042 257.034 420.366 255.475 407.905 254.575C413.894 264.529 419.677 272.143 420.985 275.021C421.674 276.52 422.018 278.619 422.087 281.017C457.404 283.955 500.432 279.458 500.432 279.458Z" fill="#AB8DA8"/>
<path d="M452.86 178.009C452.585 177.949 452.31 177.889 452.103 177.829C452.103 177.829 451.483 177.769 450.451 177.649C435.374 181.246 423.602 189.401 415.753 201.752C413.137 193.718 411.692 186.223 412.586 180.527C412.449 180.587 412.311 180.647 412.173 180.647C411.829 180.767 411.485 180.887 411.141 181.007C409.902 181.426 408.731 181.906 407.63 182.446C399.919 189.701 397.234 203.251 399.644 222.918C400.745 231.732 402.673 240.186 404.394 246.661C404.394 247.261 404.394 247.86 404.394 248.46C404.738 249.06 405.014 249.599 405.358 250.199C405.496 250.499 405.702 250.798 405.84 251.098C406.666 252.537 407.492 253.916 408.318 255.295C407.699 253.317 406.735 250.259 405.771 246.541C405.771 239.526 406.459 229.513 409.489 219.26C411.003 213.984 413 209.247 415.409 204.93C423.533 227.894 440.193 253.676 441.226 255.235L443.222 258.293L442.534 254.816C442.465 254.456 435.236 219.02 440.262 198.155C443.429 185.024 448.248 180.347 451.277 178.668C452.103 178.488 452.86 178.308 453.686 178.189C453.411 178.129 453.136 178.069 452.86 178.009ZM408.112 219.02C405.702 227.115 404.807 235.089 404.532 241.565C399.919 222.438 395.651 191.979 411.141 181.366C410.452 187.422 412.105 195.157 414.858 203.371C412.036 208.048 409.833 213.264 408.112 219.02ZM438.816 197.975C434.685 215.183 438.747 242.104 440.468 251.638C435.649 243.783 422.844 222.318 416.304 203.371C423.464 191.439 433.997 183.525 447.835 179.568C444.806 182.326 441.295 187.662 438.816 197.975Z" fill="#AB8DA8"/>
<path d="M455.889 277.599H421.674C421.261 277.599 420.985 277.359 420.985 277C420.985 276.64 421.261 276.4 421.674 276.4H455.889C456.302 276.4 456.578 276.64 456.578 277C456.578 277.359 456.233 277.599 455.889 277.599Z" fill="#472938"/>
<path d="M466.422 307.039L486.112 306.02L475.992 281.257C471.173 281.497 465.94 281.737 460.364 281.857C462.223 291.51 464.219 300.444 466.422 307.039Z" fill="#DF845C"/>
<path d="M452.309 223.217C452.309 223.217 453.48 234.849 455.407 249.899C457.679 249.119 459.951 248.22 462.085 247.141L452.309 223.217Z" fill="#DF845C"/>
<path d="M455.476 249.899C456.784 259.852 458.437 271.244 460.433 281.917C465.941 281.797 471.242 281.557 476.061 281.317L462.154 247.201C459.951 248.22 457.748 249.119 455.476 249.899Z" fill="#543753"/>
<path d="M422.225 309.258L424.152 309.138C424.152 309.138 427.25 306.799 427.87 303.742C427.044 305.181 424.909 307.159 422.225 309.258Z" fill="#DF845C"/>
<path d="M453.617 178.188C453.617 178.188 482.601 183.285 486.732 195.457C490.931 207.628 494.029 279.459 494.029 279.459C494.029 279.459 523.012 351.109 526.11 362.021C529.208 372.934 535.68 390.502 536.093 394.039C536.506 397.577 532.513 405.731 531.136 407.05C529.759 408.37 521.498 411.068 519.639 411.427C517.78 411.787 506.559 405.372 507.109 404.052C507.66 402.733 512.135 400.395 512.135 400.395L512.961 395.538C512.961 395.538 504.906 381.868 505.457 374.913C506.008 368.017 504.769 363.52 502.084 359.323C499.399 355.126 467.111 292.29 463.806 281.317C460.502 270.345 450.933 221.359 451.139 212.125C451.346 202.891 453.617 178.188 453.617 178.188Z" fill="#FFEDE5"/>
<path d="M272.695 92.0876L278.478 119.908C279.235 123.566 282.127 126.624 286.12 128.003L298.925 132.38C298.925 132.38 285.431 149.948 258.375 154.924C231.32 159.841 216.518 138.496 216.518 138.496L227.946 131.061C230.493 129.382 231.87 126.744 231.664 123.986L229.599 98.1435L272.695 92.0876Z" fill="#FFEDE5"/>
<path d="M231.182 117.51C231.182 117.51 263.607 134.179 272.695 92.0876L229.667 98.0835L231.182 117.51Z" fill="#DF845C"/>
<path d="M282.013 83.2539C283.235 78.7417 281.826 74.5907 278.866 73.9825C275.905 73.3742 272.514 76.539 271.292 81.0512C270.07 85.5634 271.479 89.7144 274.44 90.3226C277.4 90.9309 280.791 87.7661 282.013 83.2539Z" fill="#FFEDE5"/>
<path d="M225.199 95.5094C227.833 94.1849 227.811 89.8565 225.149 85.8417C222.488 81.8269 218.195 79.6461 215.561 80.9707C212.927 82.2952 212.949 86.6236 215.61 90.6384C218.272 94.6532 222.565 96.834 225.199 95.5094Z" fill="#DF845C"/>
<path d="M274.898 84.653C274.76 84.653 274.691 84.653 274.554 84.593C274.21 84.4131 274.072 84.0534 274.278 83.8135L276.688 79.7363C276.894 79.4365 277.308 79.3166 277.583 79.4965C277.927 79.6764 278.065 80.0361 277.858 80.276L275.449 84.3532C275.38 84.533 275.173 84.653 274.898 84.653Z" fill="#472938"/>
<path d="M223.058 90.2891C222.921 90.2891 222.714 90.2291 222.576 90.1092L217.895 86.3318C217.62 86.092 217.62 85.7322 217.826 85.4924C218.101 85.2525 218.515 85.2525 218.79 85.4324L223.471 89.2098C223.747 89.4497 223.747 89.8094 223.54 90.0492C223.402 90.2291 223.196 90.2891 223.058 90.2891Z" fill="#472938"/>
<path d="M212.869 64.2667C212.869 64.2667 224.16 100.841 228.428 106.118C232.627 111.334 245.639 116.191 247.842 116.491C250.045 116.79 258.788 116.011 260.785 114.512C262.781 113.013 273.521 103.12 275.173 96.7043C276.757 90.2888 277.17 56.4122 270.354 50.2364C263.47 44.0607 209.427 49.0972 212.869 64.2667Z" fill="#FFEDE5"/>
<path d="M248.255 90.289C246.534 90.289 243.505 89.5095 243.092 89.3296C242.541 89.0898 242.472 89.0898 242.679 78.5371C242.679 77.8176 242.679 77.2779 242.679 77.0981C242.61 76.6184 240.958 74.1601 239.512 72.1215C239.305 71.8217 239.374 71.462 239.719 71.2821C240.063 71.1022 240.476 71.1622 240.682 71.462C241.922 73.2008 244.125 76.1987 244.125 77.0381C244.125 77.218 244.125 77.7576 244.125 78.4771C244.056 80.6356 243.987 86.8114 244.056 88.2504C244.882 88.4902 247.223 89.0298 248.393 88.9699C249.357 88.9099 250.871 87.8906 251.56 87.291C251.835 87.0512 252.248 87.0512 252.524 87.291C252.799 87.5309 252.799 87.8906 252.524 88.1304C252.317 88.3103 250.183 90.1091 248.462 90.169C248.393 90.289 248.324 90.289 248.255 90.289Z" fill="#472938"/>
<path d="M239.718 96.6441L258.857 94.3657C258.857 94.3657 257.411 102.04 250.596 103.36C243.78 104.679 239.718 96.6441 239.718 96.6441Z" fill="white"/>
<path d="M258.719 75.2995C257.549 75.4194 256.516 74.6999 256.379 73.6806L256.241 72.3015C256.103 71.2822 256.929 70.3828 258.1 70.2629C259.27 70.143 260.303 70.8625 260.44 71.8818L260.578 73.2609C260.785 74.2802 259.89 75.1795 258.719 75.2995Z" fill="#472938"/>
<path d="M231.939 79.4961C230.769 79.676 229.667 79.0164 229.461 77.9971L229.185 76.6181C228.979 75.5988 229.736 74.6395 230.906 74.4596C232.077 74.2797 233.178 74.9392 233.385 75.9585L233.66 77.3376C233.867 78.3569 233.109 79.3162 231.939 79.4961Z" fill="#472938"/>
<path d="M251.56 66.8452C251.56 66.8452 261.473 63.7873 266.774 66.4855C266.774 66.4855 265.879 62.7081 260.44 62.8879C255.002 63.0678 251.491 63.7274 250.94 64.8666C250.389 66.0058 251.56 66.8452 251.56 66.8452Z" fill="#472938"/>
<path d="M236.827 69.1837C236.827 69.1837 226.363 68.3443 222.025 72.1217C222.025 72.1217 221.819 68.2244 227.12 67.2651C232.421 66.3057 236.001 66.1858 236.827 67.1451C237.722 68.1644 236.827 69.1837 236.827 69.1837Z" fill="#472938"/>
<path d="M219.547 84.5926L217.551 69.483C217.551 69.483 234.004 70.9819 246.396 60.0695C258.788 49.157 267.394 55.2728 267.394 55.2728L275.999 75.7187L278.065 73.86C278.065 73.86 278.547 54.7931 278.065 54.1336C277.583 53.474 273.934 51.4954 273.934 51.4954C273.934 51.4954 272.764 32.9082 246.259 29.2508C219.754 25.5933 212.732 49.7566 205.021 50.7159L208.119 54.1336C208.119 54.1336 207.086 56.8917 207.155 60.3093C207.224 63.727 215.623 80.995 215.623 80.995L219.547 84.5926Z" fill="#3B2645"/>
<path d="M182.784 148.448C182.784 148.448 167.157 152.346 167.845 180.706C167.845 180.706 152.355 200.972 150.634 225.195C150.634 225.195 112.77 194.916 111.462 191.199C110.085 187.421 110.842 174.171 109.947 170.933C109.052 167.695 105.748 164.277 106.161 159.721C106.574 155.164 107.469 148.748 106.987 148.089C106.505 147.429 99.2763 148.149 98.0371 153.365C96.7979 158.581 96.4537 164.517 96.4537 164.517C96.4537 164.517 84.8191 167.036 83.3733 168.894C81.9276 170.753 82.7537 175.67 82.7537 175.67C82.7537 175.67 83.0291 192.218 84.9567 194.077C86.8844 195.936 96.1095 200.013 98.0371 201.152C99.9648 202.291 121.72 245.881 131.151 255.774C140.583 265.667 149.326 268.425 157.519 266.087C165.711 263.749 188.361 237.127 195.658 224.776C202.956 212.424 200.271 149.887 182.784 148.448Z" fill="#FFEDE5"/>
<path d="M199.1 189.64C190.77 187.841 185.332 188.921 185.332 188.921C185.332 188.921 196.415 223.817 179.273 246.481C186.02 238.686 192.354 230.292 195.589 224.836C198.687 219.5 199.995 204.75 199.1 189.64Z" fill="#DF845C"/>
<path d="M150.565 225.196L157.037 229.333L150.841 222.617L150.565 225.196Z" fill="#DF845C"/>
<path d="M88.1923 168.595C88.1923 168.595 99.9646 169.374 100.584 169.974C101.204 170.573 102.168 191.739 99.9646 193.178C97.6928 194.677 86.4023 194.437 86.4023 194.437C86.4023 194.437 99.8958 195.516 101.342 194.976C102.787 194.437 105.403 187.002 105.885 183.165C106.367 179.327 103.613 169.194 102.581 168.954C101.548 168.715 88.1923 168.595 88.1923 168.595Z" fill="#DF845C"/>
<path d="M332.383 593.342C332.865 580.151 334.448 560.784 334.173 542.857C333.76 517.074 330.799 488.054 329.354 479.6C327.839 471.146 331.35 431.993 331.35 431.993L269.115 439.548C270.63 443.745 281.92 480.56 282.402 496.629C282.953 512.697 305.602 587.526 306.497 593.522C306.635 594.301 306.704 595.141 306.842 595.98C312.556 596.58 323.502 597.059 332.383 593.342Z" fill="#FFEDE5"/>
<path d="M313.106 612.469C313.106 612.469 312.418 606.053 320.679 604.494C328.941 602.935 332.727 606.533 332.727 606.533C332.245 603.715 332.245 599.098 332.452 593.342C323.571 597.059 312.625 596.58 306.979 595.98C307.53 600.657 307.668 606.233 307.117 610.79C308.012 612.828 313.106 612.469 313.106 612.469Z" fill="white"/>
<path d="M304.432 639.81C313.244 643.827 310.697 652.821 321.712 655.039C330.868 656.898 344.775 655.819 350.213 655.279C351.659 655.159 352.829 654.14 353.105 652.881C353.243 651.981 353.38 650.782 353.311 649.523C346.427 650.062 330.249 651.142 323.777 649.763C315.516 648.024 313.519 640.649 309.389 638.61C306.291 637.111 304.294 635.133 303.468 634.233C303.331 635.493 303.124 636.572 303.055 637.351C302.78 638.43 303.399 639.39 304.432 639.81Z" fill="#3B2645"/>
<path d="M350.213 641.488C348.561 639.45 346.152 635.073 343.673 630.096C342.227 634.593 325.705 632.495 323.571 632.015C321.437 631.535 313.175 612.469 313.175 612.469C313.175 612.469 308.081 612.768 307.117 610.73C306.979 611.749 306.842 612.768 306.635 613.668C305.809 617.505 304.294 627.998 303.468 634.234C304.294 635.133 306.291 637.052 309.389 638.61C313.588 640.649 315.516 648.024 323.777 649.763C330.249 651.142 346.427 650.063 353.311 649.523C353.105 647.125 352.416 644.247 350.213 641.488Z" fill="#AB8DA8"/>
<path d="M323.502 632.015C325.636 632.495 342.159 634.593 343.604 630.096C338.372 619.663 332.658 606.532 332.658 606.532C332.658 606.532 328.872 602.935 320.61 604.494C312.349 606.053 313.038 612.468 313.038 612.468C313.038 612.468 321.368 631.595 323.502 632.015Z" fill="#3B2645"/>
<path d="M309.896 481.481C316.433 480.596 321.529 478.738 321.277 477.331C321.026 475.924 315.523 475.501 308.986 476.386C302.449 477.271 297.354 479.129 297.605 480.536C297.856 481.943 303.359 482.366 309.896 481.481Z" fill="#E0855C"/>
<path d="M156.004 594.361C156.073 581.11 156.899 561.863 157.863 543.935C159.584 512.097 167.57 484.097 167.57 480.679C167.57 467.129 169.36 425.098 170.324 426.117L227.946 438.288C226.294 442.426 210.529 477.202 209.358 493.27C208.188 509.339 182.991 589.384 181.821 595.32C181.683 596.099 181.545 596.879 181.408 597.778C175.694 598.138 164.747 598.318 156.004 594.361Z" fill="#FFEDE5"/>
<path d="M174.523 614.027C174.523 614.027 175.487 607.612 167.295 605.813C159.102 604.014 155.178 607.492 155.178 607.492C155.798 604.674 156.004 600.057 156.004 594.301C164.747 598.258 175.694 598.078 181.408 597.659C180.719 602.275 180.306 607.852 180.719 612.469C179.549 614.507 174.523 614.027 174.523 614.027Z" fill="white"/>
<path d="M182.096 641.608C173.078 645.386 175.35 654.439 164.266 656.298C155.041 657.857 141.203 656.418 135.764 655.699C134.318 655.519 133.148 654.499 133.01 653.18C132.873 652.281 132.804 651.082 132.942 649.823C139.826 650.542 155.936 652.101 162.476 650.962C170.806 649.463 173.078 642.148 177.277 640.229C180.444 638.79 182.509 636.932 183.404 636.032C183.542 637.291 183.611 638.371 183.68 639.21C183.817 640.229 183.129 641.189 182.096 641.608Z" fill="#3B2645"/>
<path d="M136.315 641.968C138.036 639.989 140.652 635.672 143.337 630.756C144.645 635.312 161.167 633.694 163.37 633.274C165.573 632.854 174.523 614.027 174.523 614.027C174.523 614.027 179.549 614.507 180.65 612.468C180.719 613.488 180.857 614.507 180.995 615.406C181.683 619.304 182.785 629.796 183.404 636.032C182.509 636.931 180.444 638.79 177.277 640.229C173.009 642.148 170.806 649.403 162.475 650.962C156.004 652.161 139.826 650.602 132.941 649.823C133.148 647.484 134.043 644.606 136.315 641.968Z" fill="#AB8DA8"/>
<path d="M163.302 633.274C161.098 633.693 144.576 635.312 143.268 630.755C148.913 620.443 155.109 607.492 155.109 607.492C155.109 607.492 159.033 604.014 167.226 605.813C175.418 607.611 174.454 614.027 174.454 614.027C174.454 614.027 165.505 632.854 163.302 633.274Z" fill="#3B2645"/>
<path d="M195.055 485.8C195.36 484.401 190.339 482.395 183.84 481.32C177.34 480.244 171.824 480.506 171.519 481.905C171.214 483.303 176.235 485.309 182.734 486.385C189.233 487.461 194.75 487.199 195.055 485.8Z" fill="#E0855C"/>
<path d="M323.777 317.712C323.777 317.712 335.343 381.508 331.35 431.993C331.35 431.993 308.976 446.563 256.723 437.869L248.668 397.757L235.45 438.109C235.45 438.109 181.27 440.927 166.744 422.639C166.744 422.639 174.523 346.972 190.977 316.393C207.431 285.814 318.407 292.649 323.777 317.712Z" fill="#3B2645"/>
<path d="M248.668 397.757C248.668 397.757 242.197 392.78 241.509 392.3C240.82 391.821 234.831 371.195 234.831 371.195L241.44 419.821L248.668 397.757Z" fill="#3B2645"/>
<path d="M278.272 433.072C266.637 433.072 258.238 432.293 258.031 432.293C257.825 432.293 257.687 432.113 257.756 431.933C257.756 431.753 257.963 431.633 258.169 431.693C258.651 431.753 304.845 436.01 331.764 424.198C331.901 424.138 332.108 424.198 332.245 424.318C332.314 424.438 332.245 424.618 332.108 424.738C316.342 431.633 294.243 433.072 278.272 433.072Z" fill="white"/>
<path d="M237.585 431.873C237.585 431.873 237.516 431.873 237.585 431.873C187.466 428.215 167.57 416.044 167.363 415.924C167.226 415.804 167.157 415.624 167.295 415.504C167.432 415.384 167.639 415.324 167.777 415.444C167.983 415.564 187.741 427.616 237.653 431.273C237.86 431.273 237.998 431.453 237.998 431.573C237.86 431.753 237.722 431.873 237.585 431.873Z" fill="white"/>
<path d="M290.181 129.382C290.181 129.382 279.579 147.909 255.277 149.288C230.975 150.667 221.543 135.317 221.543 135.317L182.784 148.508C182.784 148.508 189.806 170.213 185.331 188.98C185.331 188.98 195.589 220.878 195.589 224.896C195.589 228.913 204.195 245.941 204.745 249.958C205.296 253.976 190.977 316.452 190.977 316.452C190.977 316.452 259.408 333.96 275.311 333.361C291.214 332.761 323.777 317.712 323.777 317.712C323.777 317.712 320.541 265.368 323.777 252.477C327.013 239.585 339.129 205.109 339.129 205.109C339.129 205.109 328.872 159.96 331.763 141.973L290.181 129.382Z" fill="#AB8DA8"/>
<path d="M331.281 204.39C330.937 204.39 330.662 204.21 330.593 203.91C324.534 182.325 323.364 140.054 323.364 139.635C323.364 139.275 323.639 139.035 324.053 139.035C324.466 139.035 324.741 139.275 324.741 139.635C324.741 140.054 325.911 182.205 331.97 203.67C332.038 203.97 331.832 204.33 331.488 204.39C331.35 204.39 331.281 204.39 331.281 204.39Z" fill="#472938"/>
<path d="M187.603 196.655C187.466 196.655 187.259 196.595 187.121 196.535C186.846 196.296 186.777 195.936 187.052 195.696C199.169 183.764 188.016 147.01 187.879 146.65C187.81 146.35 188.016 145.99 188.361 145.93C188.705 145.87 189.118 146.05 189.187 146.35C189.669 147.909 200.615 184.064 188.016 196.475C187.947 196.595 187.741 196.655 187.603 196.655Z" fill="#472938"/>
<path d="M251.56 155.823C227.464 155.823 215.003 137.836 214.866 137.596C214.659 137.296 214.797 136.936 215.141 136.756C215.485 136.577 215.898 136.696 216.105 136.996C216.243 137.176 229.254 156.003 254.382 154.504C274.76 153.305 285.775 141.913 289.424 138.135C290.663 136.816 291.007 136.517 291.558 136.636C291.834 136.696 292.04 136.876 292.109 137.116C292.247 137.416 292.04 137.776 291.627 137.836C291.558 137.836 291.558 137.836 291.489 137.836C291.283 138.016 290.87 138.495 290.457 138.915C286.739 142.752 275.449 154.444 254.451 155.703C253.487 155.823 252.524 155.823 251.56 155.823Z" fill="#472938"/>
<path d="M331.763 141.973C331.763 141.973 356.822 140.774 362.123 175.19C362.123 175.19 387.871 217.761 390.831 231.371C393.792 244.982 388.491 264.169 382.019 274.002C375.548 283.835 354 315.613 350.076 320.47C346.151 325.326 346.771 326.585 336.513 327.245C336.513 327.245 328.94 328.444 327.426 329.044C325.911 329.643 316.755 333.9 314.896 333.301C313.037 332.761 311.247 330.603 311.592 330.183C312.005 329.703 321.574 325.206 321.574 325.206C321.574 325.206 306.153 327.485 304.707 327.425C303.261 327.365 301.127 324.547 301.127 324.547C301.127 324.547 296.102 322.568 295.482 321.009C294.862 319.45 300.37 316.333 300.37 316.333C300.37 316.333 297.065 315.613 295.895 314.114C294.725 312.615 315.171 303.082 317.65 303.202C320.128 303.322 336.926 305.18 336.926 305.18C336.926 305.18 359.232 242.703 359.438 238.806C359.645 234.909 341.745 218.66 338.992 205.109C339.129 205.109 327.632 157.982 331.763 141.973Z" fill="#FFEDE5"/>
<path d="M300.163 324.727C299.888 324.727 299.681 324.607 299.544 324.367C299.406 324.067 299.544 323.708 299.888 323.588L315.447 317.412C315.791 317.292 316.204 317.412 316.342 317.712C316.479 318.012 316.342 318.371 315.997 318.491L300.439 324.667C300.37 324.727 300.301 324.727 300.163 324.727Z" fill="#472938"/>
<path d="M300.508 316.993C300.232 316.993 300.026 316.873 299.888 316.693C299.682 316.393 299.819 316.033 300.163 315.853L315.378 308.778C315.722 308.598 316.135 308.718 316.342 309.018C316.548 309.318 316.411 309.677 316.066 309.857L300.852 316.933C300.714 316.933 300.577 316.993 300.508 316.993Z" fill="#472938"/>
</svg>
